<svg xmlns="http://www.w3.org/2000/svg" fill="none" viewBox="0 0 599 816" height="816" width="599">
<g opacity="0.3">
<path fill="#FD8D6C" d="M382.044 104.771C377.117 105.602 372.771 103.905 368.534 102.119C362.224 99.4456 356.539 95.6679 350.972 91.6363C344.033 86.6128 336.691 82.1497 329.66 77.2472C322.984 72.5906 315.573 69.5185 307.889 67.2043C302.733 65.5587 297.142 65.96 292.274 68.3251C287.352 70.7078 282.381 73.0704 277.24 74.9048C271.294 77.0497 266 80.4927 260.17 82.8512C255.522 84.7461 250.732 85.6412 245.789 86.2177C232.279 87.7981 218.725 87.4272 205.17 87.4272C197.517 87.3671 189.93 88.8451 182.859 91.7733C178.827 93.4545 174.461 94.3818 170.361 96.063C166.502 97.6475 162.797 99.369 159.58 102.111C157.129 104.187 154.536 106.102 151.944 108.005C147.549 111.23 145.401 116.068 142.961 120.644C140.381 125.482 138.281 130.566 136.043 135.561C133.753 140.682 130.334 145.185 127.214 149.842C119.606 161.195 112.01 172.56 107.459 185.59C106.942 187.054 105.757 188.308 105.963 190.852C107.293 188.316 108.208 186.377 109.297 184.542C113.599 177.285 119.348 171.326 125.944 166.133C127.512 164.9 129.234 163.714 130.419 162.178C131.814 160.344 133.576 160.235 135.422 160.409C138.648 160.719 140.526 164.138 138.067 166.819C135.354 169.774 132.713 172.818 131.084 176.495C129.657 179.72 127.379 182.309 125.605 185.244C121.747 191.642 118.046 198.173 115.711 205.342C114.373 209.454 114.099 213.469 116.731 217.275C118.026 219.154 119.666 220.46 121.944 220.658C129.657 221.339 136.184 218.896 141.433 213.131C142.748 211.683 143.046 210.518 141.881 208.587C138.611 203.116 138.289 197.379 140.776 191.348C142.163 187.993 143.421 184.639 145.614 181.716C145.775 181.499 145.878 181.244 145.915 180.977C145.951 180.709 145.92 180.436 145.824 180.184C144.905 177.261 144.743 174.201 144.473 170.935C142.034 172.411 144.235 173.81 144.034 175.173C143.139 175.116 142.949 174.326 142.949 173.842C142.949 169.294 142.457 164.767 143.151 160.191C143.764 156.159 143.107 151.974 144.074 147.89C147.207 134.606 152.819 122.547 162.027 112.411C166.285 107.731 171.703 104.437 177.618 102.03C179.206 101.385 181.371 101.187 181.375 98.6393C181.375 98.3772 181.907 97.9579 182.254 97.8773C185.81 97.0709 189.16 94.7689 193.063 96.3856C194.321 96.9057 195.692 96.8452 197.03 96.946C199.094 97.1032 200.602 97.9579 200.848 100.474C197.203 100.386 193.565 100.837 190.051 101.812C189.007 102.094 188.011 102.365 187.177 103.147C183.391 106.691 179.472 110.069 176.162 114.121C174.146 116.584 171.683 118.665 169.518 121.043C161.737 129.594 158.229 140.077 155.617 150.91C154.004 157.526 152.702 164.275 153.266 171.189C153.399 172.802 153.541 174.394 153.726 175.995C154.129 179.511 154.161 179.623 157.854 179.095C159.87 178.817 160.983 180.131 161.785 181.337C162.463 182.357 162.838 184.187 161.463 185.171C160.088 186.155 160.253 187.449 160.112 188.739C160.068 189.142 160.346 189.662 160.173 189.92C156.782 194.908 161.177 197.701 163.374 201.024C164.233 202.326 165.744 203.181 166.877 204.317C168.365 205.813 169.627 205.652 170.909 204.055C174.316 199.766 178.722 196.226 180.714 190.884C184.032 188.824 185.665 185.054 188.85 182.869C189.729 182.264 190.733 181.869 191.426 180.978C191.729 180.575 192.486 180.039 192.68 180.172C195.7 182.002 200.393 179.365 202.429 183.889C203.142 185.469 204.15 184.292 205.057 183.853C211.21 180.829 219.591 183.046 223.2 188.747C224.619 191.017 225.863 193.392 226.921 195.851C229.586 201.975 231.021 202.576 236.714 199.455C238.46 198.5 240.109 197.367 242.165 196.093C242.499 197.96 241.06 199.721 242.689 201.016C242.866 201.153 242.826 201.862 242.632 202.116C240.967 204.35 239.593 206.986 236.702 207.861C233.477 208.841 230.191 209.264 226.981 207.579C224.966 206.519 222.865 205.628 220.845 204.58C217.693 202.967 214.995 200.842 213.487 197.464C212.73 195.77 211.762 194.174 210.915 192.577C209.609 192.65 208.859 193.529 207.879 193.904C204.876 195.065 201.913 195.42 199.01 193.553C198.317 193.144 197.593 192.791 196.845 192.497C193.273 190.94 192.946 191.069 191.495 194.557C190.536 196.776 189.274 198.852 187.745 200.725C185.838 203.144 184.665 205.942 183.161 209.192L195.579 210.038C194.01 211.083 192.499 212.026 190.6 211.724C190.2 211.654 189.793 211.643 189.39 211.691C184.121 212.498 183.657 213.445 184.552 218.723C185.665 225.318 188.116 231.108 193.454 235.313C196.587 237.788 199.772 240.288 204.174 240.224C208.577 240.159 211.339 237.534 213.758 234.434C215.677 231.967 216.862 229.032 218.999 226.613C220.736 224.661 221.015 221.718 220.974 218.981C220.974 217.771 220.442 217.009 219.18 216.699C216.205 215.965 213.637 214.062 210.544 213.619C210.141 213.562 209.839 213.28 209.782 212.482C213.411 213.977 216.931 212.397 220.361 212.534C223.708 212.667 226.873 213.018 230.066 211.853C230.467 211.786 230.877 211.794 231.275 211.877C232.082 211.917 233.029 211.816 233.247 212.828C233.412 213.598 232.666 213.86 232.098 214.243C228.921 216.396 227.006 219.275 227.167 223.266C227.215 223.533 227.215 223.806 227.167 224.073C224.421 231.43 228.058 237.869 230.219 244.469C231.674 248.924 232.678 253.5 234.323 257.91C236.238 263.055 239.718 267.099 242.818 271.425C243.466 272.292 244.361 272.944 245.386 273.295C249.656 274.876 257.175 274.835 261.392 270.042C264.903 266.054 265.726 265.119 268.113 258.773C266.097 259.265 264.234 259.535 262.871 257.616C261.811 256.12 260.662 254.842 259.961 252.98C258.989 250.395 259.324 247.392 257.344 245.122C256.437 244.086 257.296 243.074 258.094 242.34C259.251 241.276 260.642 241.606 261.868 242.131C262.908 242.57 263.033 243.34 262.271 244.372C261.992 244.766 261.875 245.252 261.943 245.729C262.011 246.207 262.26 246.64 262.638 246.94C264.484 248.182 264.791 250.279 265.835 251.956C266.238 252.633 266.52 253.568 267.129 253.947C270.354 256.02 270.395 258.693 269.753 262.22C268.947 266.716 268.947 271.4 269.02 275.997C269.052 277.609 268.496 278.484 267.665 279.488C264.287 283.58 259.751 284.89 254.679 284.701C244.818 284.326 237.29 279.601 231.864 271.634C229.247 267.796 228.235 263.091 226.433 258.814C224.212 253.597 223.506 247.976 222.462 242.457C222.297 241.566 222.442 240.526 221.301 239.804C220.575 240.397 219.555 240.889 219.031 241.699C215.306 247.493 209.661 247.747 203.815 246.815C194.728 245.356 187.939 239.885 182.186 233.16C178.537 228.891 175.332 224.186 174.175 218.477C173.864 216.941 173.046 216.961 171.836 217.445C168.208 218.9 164.579 220.267 160.548 219.634C157.189 219.106 154.129 217.86 151.085 216.433C146.929 214.477 146.953 214.57 144.695 218.493C143.792 220.065 143.082 221.92 140.978 222.424C140.518 225.46 137.664 225.734 135.737 227.169C132.66 229.459 129.367 229.229 126.117 228.475C120.916 227.266 115.635 225.964 111.954 221.561C108.882 220.851 108.386 218.199 107.249 215.82C106.301 213.828 106.41 210.663 102.782 210.579C102.052 210.579 102.354 208.736 102.56 207.652C103.544 202.447 103.395 197.04 105.382 191.948C103.137 194.641 101.673 197.734 99.6008 200.415C98.6211 201.689 97.7946 203.048 96.5166 204.088C93.767 206.321 92.8034 209.776 91.1262 212.679C89.1104 216.163 88.4532 220.339 86.639 224.044C84.1555 229.116 83.0629 234.7 81.6397 240.139C80.7164 243.663 80.9221 243.836 84.5586 244.126C85.6149 244.211 86.385 244.449 86.7438 245.473C87.1026 246.497 86.2761 246.876 85.6149 247.311C84.1716 248.267 82.3573 249.073 84.2522 251.226C84.3691 251.355 83.9902 251.919 83.849 252.278C80.2205 260.958 83.4096 269.526 91.7793 273.961C94.7991 275.573 97.8269 276.839 101.359 276.311C102.185 276.186 102.999 276.251 103.221 277.315C103.443 278.379 102.689 278.448 102.012 278.928C98.4679 281.419 98.5163 281.488 92.0414 280.71C94.7507 285.729 101.338 288.809 106.6 287.624C108.156 287.273 108.676 286.289 109.188 284.947C110.688 281.02 112.817 277.504 116.143 274.783C118.001 273.267 120.122 272.146 122.368 272.388C125.855 272.759 128.314 271.469 130.431 268.957C130.729 268.701 131.069 268.498 131.435 268.357C133.08 270.001 133.14 271.421 131.838 273.517C130.475 275.722 130.1 278.48 128.613 280.774C126.953 283.233 124.745 285.273 122.162 286.733C119.574 288.281 118.534 290.482 118.372 293.373C118.122 298.211 118.122 302.985 119.126 307.77C120.247 313.132 124.875 317.599 130.415 318.168C131.617 318.333 132.835 318.359 134.043 318.244C137.906 317.728 141.446 319.119 145.034 320.063C148.445 320.958 149.025 323.433 146.529 325.864C142.982 329.319 142.05 333.928 140.768 338.415C140.591 339.024 140.768 339.729 140.365 340.33C136.769 345.607 135.305 351.812 132.874 357.594C128.992 366.842 123.678 375.143 116.344 382.021C111.909 386.19 106.805 387.001 101.205 383.957C101.73 381.679 102.415 379.429 104.503 377.929C110.002 373.954 113.079 368.116 116.316 362.436C119.908 356.142 122.424 349.325 125.621 342.838C128.339 337.322 131.967 332.295 134.471 326.263C129.734 325.526 125.399 323.78 120.989 322.232C112.675 319.389 109.22 313.011 108.12 304.952C107.717 302.045 107.866 299.058 107.866 296.111C107.866 294.865 107.696 293.966 106.189 294.038C99.1291 294.361 93.6097 291.131 88.7193 286.451C88.4347 286.165 88.1181 285.914 87.7759 285.701C87.5289 285.612 87.2685 285.565 87.0058 285.564C85.9858 286.503 86.3245 287.773 86.1995 288.942C85.5423 295.961 87.5098 302.731 88.2153 309.617C88.4492 311.878 89.4248 314.011 90.5457 316.011C92.2067 318.958 94.5289 320.68 98.1171 319.97C98.5173 319.902 98.9212 319.859 99.3266 319.841C99.883 319.809 100.435 319.893 100.585 320.522C100.661 320.78 100.67 321.054 100.61 321.316C100.551 321.579 100.426 321.822 100.246 322.022C97.8269 324.651 93.2106 325.247 89.8562 323.679C85.6754 321.732 83.5023 318.071 81.3131 314.37C77.3661 307.706 76.8783 300.36 77.5959 292.946C78.0555 288.164 78.4385 283.33 79.648 278.641C79.9383 277.517 79.6722 276.597 79.1562 275.585C78.0958 273.501 77.1807 271.34 76.2332 269.199C75.3341 267.183 75.0237 264.684 72.129 264.305C71.8669 264.268 71.5605 263.756 71.4637 263.414C70.3671 259.519 68.2384 255.995 68.4198 251.645C68.6738 244.937 68.4803 238.179 70.9396 231.822C72.774 227.08 74.0884 222.109 76.8097 217.731C77.0718 217.308 77.4226 216.844 77.0395 216.279C70.3389 217.017 66.1863 221.561 62.4368 226.435C55.9862 234.841 50.8337 244.05 46.3101 253.657C43.3751 259.89 43.2541 266.373 43.2017 272.92C43.1614 277.492 41.964 281.859 41.4399 286.338C41.3923 286.524 41.3035 286.697 41.1799 286.844C41.0564 286.992 40.9014 287.109 40.7263 287.188C40.0933 287.438 39.7345 286.959 39.549 286.431C39.2247 285.696 39.0048 284.92 38.8959 284.124C38.525 276.214 38.013 268.236 40.4078 260.571C41.7423 256.306 41.2585 251.702 43.6734 247.618C45.9876 243.703 47.9913 239.599 50.3176 235.672C52.6439 231.745 55.2887 228.012 57.8125 224.23C61.7474 218.311 66.5088 213.284 73.0321 210.276C78.6321 207.696 84.1071 204.886 89.5619 202.032C93.6662 199.891 95.6739 196.278 97.5648 192.388C100.262 186.848 102.322 181.039 105.08 175.515C107.902 169.871 111.301 164.573 114.623 159.235C117.598 154.454 120.795 149.813 123.896 145.124C129.02 137.4 132.701 128.897 137.12 120.793C138.732 117.85 139.635 114.621 141.401 111.774C147.517 101.905 156.205 94.9584 166.535 90.0034C176.965 84.9921 188.04 81.7385 199.292 79.3316C206.093 77.8762 213.185 78.2511 220.16 78.6301C223.906 78.8962 227.666 78.872 231.408 78.5575C238.75 77.8197 246.096 77.1505 253.441 76.4409C255.988 76.2194 258.46 75.4668 260.698 74.2315C269.427 69.3451 279.075 66.6479 287.94 62.1688C289.493 61.3826 291.077 60.6609 292.665 59.9513C300.697 56.3511 308.792 56.726 317.005 59.3547C325.083 61.8776 332.717 65.6513 339.626 70.5385C346.573 75.5217 353.963 79.9888 360.277 85.7823C363.51 88.7778 366.844 91.6403 369.904 94.8253C372.206 97.2443 375.637 98.2684 377.734 101.026C378.871 102.538 379.83 104.328 382.044 104.771ZM163.93 209.837C161.048 207.075 158.028 204.451 155.52 201.318C154.311 199.782 153.472 200.044 152.859 201.967C151.904 204.954 153.605 209.224 156.464 211.006C159.322 212.788 161.007 212.522 163.918 209.837H163.93ZM143.994 165.049L143.82 164.041C143.728 164.244 143.656 164.456 143.607 164.674C143.543 164.923 143.552 165.184 143.631 165.428C143.752 165.678 143.937 165.557 143.994 165.049ZM82.3896 245.904C82.2807 245.501 82.1074 245.013 81.6719 245.098C81.4886 245.168 81.3221 245.276 81.1832 245.415C81.0443 245.554 80.9361 245.721 80.8656 245.904C80.6842 246.364 80.9462 246.678 81.4905 246.569C81.8735 246.477 82.2767 246.38 82.3896 245.904Z"></path>
<path fill="#FD8D6C" d="M149.082 693.74L149.825 706.44C149.049 704.267 148.53 702 148.28 699.691C147.698 694.537 147.265 689.362 146.542 684.229C146.134 681.351 145.385 678.539 145.061 675.612C144.855 673.768 144.759 671.926 144.663 670.084C144.112 659.445 143.26 648.833 143.205 638.155C143.171 631.736 143.614 625.344 143.902 618.941C143.955 617.73 144.136 616.535 144.066 615.34C143.293 602.102 143.617 588.873 143.342 575.64C143.115 565.348 143.053 555.057 142.878 544.765C142.818 541.178 142.826 540.916 139.649 540.132C132.474 538.354 127.998 533.488 124.88 526.589C123.254 522.993 121.425 519.506 119.835 515.88C117.685 511.038 116.246 505.872 115.569 500.565C114.884 495.26 113.434 494.472 108.677 493.378C101.665 491.763 94.5527 490.219 88.2999 486.021C84.8755 483.769 82.0161 480.648 79.975 476.933C77.7173 472.78 75.6576 468.49 73.719 464.156C72.7493 461.84 71.6621 459.581 70.4623 457.391C70.0049 456.614 69.6538 455.734 69.2423 454.91C69.0393 454.565 68.963 454.152 69.0283 453.752C69.0936 453.352 69.2958 452.993 69.5953 452.746C70.1533 452.233 70.8343 452.67 71.3139 452.995C73.0254 454.146 74.6166 455.611 75.4666 457.531C77.4783 462.026 80.8409 465.539 82.9356 469.98C83.8725 471.976 85.5981 473.114 87.621 474.21C94.3321 477.857 101.659 478.583 108.79 480.122C113.316 481.113 116.572 483.639 118.725 487.794C120.289 490.704 121.399 493.868 122.01 497.158C123.668 506.88 126.984 515.811 132.48 523.852C135.901 528.876 136.482 529.646 142.122 531.893C141.999 529.787 141.92 527.847 141.773 525.911C141.171 518.728 140.975 511.515 141.185 504.312C141.308 500.017 140.315 495.834 139.443 491.677C138.92 489.152 140.667 486.988 143.195 487.183C148.165 487.567 146.933 488.511 148.783 492.995C151.02 498.398 147.505 507.442 149.143 513.046C151.948 522.601 154.843 534.559 158.518 543.806C160.64 549.151 162.965 556.284 164.308 561.842C165.574 567.295 168.485 572.197 170.626 577.33C172.292 581.23 174.744 584.131 175.851 588.21C178.003 596.13 180.387 603.575 183.816 610.849C185.787 615.024 190.8 619.082 193.056 623.082C198.525 632.768 207.042 638.781 213.836 647.435C215.686 649.794 217.231 652.4 219.13 654.7C226.312 663.402 235.251 669.347 245.455 673.098C249.351 674.522 247.755 674.864 251.502 676.691C252.366 677.114 253.52 677.196 253.205 678.781C253.124 679.189 253.323 680.11 253.932 679.304C255.138 677.704 255.768 678.688 256.41 679.792C257.111 681.026 258.29 681.529 259.385 682.118C263.046 684.08 267.09 686.107 270.614 688.291C271.182 688.658 271.578 689.141 271.346 689.921C271.161 690.536 270.635 690.576 270.153 690.718C267.945 691.389 265.972 690.572 264.054 689.599C260.555 687.857 256.679 686.765 253.241 684.846C247.843 681.769 246.914 680.86 241.04 679.069C233.902 676.955 227.82 672.919 221.771 668.685C214.352 663.503 208.825 656.334 203.175 649.124C196.007 639.974 189.685 630.224 183.137 620.593C180.547 616.786 178.841 612.458 177.021 608.226C173.94 601.068 171.767 593.62 169.513 586.077C167 577.672 149.437 535.567 146.99 527.142C146.638 525.928 147.91 566.587 146.42 566.014C146.709 570.969 147.138 576.768 147.334 581.668C147.577 587.804 148.683 591.795 148.66 597.936C148.648 601.963 148.753 605.946 148.987 609.945C149.538 619.695 150.853 623.934 150.748 633.667C150.659 642.207 152.082 651.502 152.29 660.056C152.637 674.395 157.789 688.03 159.387 702.24C160.704 713.931 167.802 724.393 168.419 736.159C168.718 741.926 171.735 747.847 172.134 753.532C172.623 760.539 176.483 768.529 178.387 774.967C179.05 777.205 179.921 780.701 182.116 780.896C185.746 781.225 183.823 783.478 186.986 785.494C192.428 788.953 196.565 791.444 202.605 793.433C205.458 794.377 209.012 794.198 211.664 795.617C219.371 799.766 228.718 798.977 236.834 801.728C239.784 802.727 242.717 804.081 245.743 804.467C251.286 805.17 256.687 806.715 262.219 807.422C267.894 808.148 268.715 803.841 274.415 804.278C282.211 804.883 288.799 801.15 296.111 798.093C299.803 796.55 303.469 795 306.844 792.768C308.171 791.882 309.598 791.818 311.094 791.59C311.163 793.671 309.792 794.431 308.772 795.251C297.815 804.051 285.816 810.419 271.824 810.291C263.179 810.209 261.068 812.319 252.557 809.982C250.528 809.422 247.8 811.547 245.728 811.223C242.047 810.644 238.639 809.822 235.049 809.088C228.947 807.852 218.463 803.501 212.441 801.97C208.784 801.039 209.701 804.572 206.225 803.151C203.792 802.156 196.78 795.329 194.312 795.081C189.038 794.555 190.66 798.46 186.121 796.166C181.392 793.775 185.596 797.128 181.258 793.991C177.177 791.065 178.97 790.345 176.58 785.721C177.458 784.862 171.415 776.083 172.319 775.339C170.035 771.425 172.674 772.127 170.291 768.191L167.584 761.461C166.777 757.112 166.679 756.719 165.436 752.488L163.918 747.345C163.157 741.755 161.751 736.338 161.056 730.793C160.178 723.785 153.332 718.577 152.122 711.597C151.326 707 151.111 702.295 150.495 697.663C150.319 696.321 150.647 694.614 149.05 693.818C149.871 689.102 148.748 684.496 148.324 679.864C147.63 672.29 146.729 664.744 146.788 657.111C146.819 653.285 146.386 649.454 146.162 645.627L145.414 645.649C145.404 646.942 145.334 648.239 145.39 649.528C145.564 653.656 145.82 657.783 145.979 661.912C146.385 672.58 147.618 683.173 149.082 693.74ZM145.948 619.794C146.844 622.686 144.26 625.631 146.427 629.322C145.922 625.557 147.153 622.663 145.948 619.794ZM145.836 635.941C145.58 637.97 145.13 640.01 145.879 642.645C146.601 640.004 145.779 637.974 145.836 635.941ZM145.333 630.42C145.266 631.958 144.801 633.045 145.807 633.97C145.922 634.076 146.236 633.944 146.459 633.91C146.35 632.942 146.248 631.978 146.128 631.015C146.139 630.942 145.971 630.888 145.333 630.42Z"></path>
<path fill="#FD8D6C" d="M471.999 777.591C470.651 775.019 470.485 771.986 468.744 768.999C468.652 770.798 468.431 772.145 467.011 773.127C464.981 765.783 462.963 758.464 461.227 751.059C459.49 743.654 458.938 735.97 457.143 728.551C457.03 728.027 456.988 727.489 457.017 726.953C457.087 724.017 456.758 721.085 456.04 718.244C455.185 714.649 455.455 710.773 455.19 707.024C454.772 701.105 455.216 695.156 454.883 689.251C453.977 673.564 456.12 658.043 457.033 642.457C457.632 632.378 458.156 622.297 458.736 612.214C458.99 607.766 459.315 603.32 459.552 598.901C459.599 598.031 459.949 597.049 458.906 596.012C455.536 602.615 450.867 608.166 446.971 614.265C445.386 616.732 443.557 619.023 441.512 621.102C438.274 624.429 435.441 628.159 432.434 631.673C428.65 636.09 425.15 640.79 421.151 645.023C416.771 649.659 412.2 654.095 407.75 658.672C404.326 662.188 400.812 665.636 397.622 669.36C395.025 672.388 391.82 674.468 388.448 676.191C382.832 679.068 376.9 681.143 370.879 683.005C365.139 684.794 359.582 687.263 353.559 688.036C348.487 688.685 343.552 689.977 338.633 691.391C336.358 692.015 334.032 692.421 331.685 692.604C324.09 693.278 316.921 695.991 309.483 697.422C305.499 698.182 301.449 698.514 297.4 698.412C296.22 698.38 294.961 698.212 294.6 696.717C294.062 694.499 292.321 693.683 290.472 692.746C292.553 694.422 294.456 692.72 296.415 692.635C304.079 692.3 311.262 689.667 318.54 687.487C320.794 686.811 322.988 685.724 325.287 685.41C333.722 684.248 341.874 681.735 350.179 679.98C359.529 678.009 368.724 675.346 377.372 671.077C380.564 669.503 383.342 667.189 385.901 664.674C394.141 656.604 402.553 648.708 410.321 640.146C418.621 630.992 427.338 622.181 434.742 612.237C440.942 603.901 446.957 595.418 451.201 585.757C454.166 579.002 456.735 572.05 458.455 564.929C460.455 556.617 461.544 548.053 463.799 539.776C465.634 533.035 467.386 526.291 468.287 519.339C468.412 518.354 468.7 517.167 469.578 517C473.218 516.289 472.47 513.098 473.172 510.732C473.487 509.679 472.811 508.325 474.08 507.395C475.875 511.465 474.385 515.79 475.553 519.758C476.718 523.535 476.775 527.583 475.715 531.396C475.383 532.602 476.245 533.168 477.378 532.607C478.846 531.882 479.768 530.558 480.554 529.125C481.981 526.546 483.615 524.093 485.44 521.794C487.477 519.233 489.93 517.741 493.303 518.492C493.941 518.616 494.598 518.605 495.232 518.459C504.875 516.411 513.53 512.069 519.885 504.381C525.728 497.311 527.836 488.921 524.99 479.493C523.267 473.778 520.039 468.831 518.223 463.218C517.132 459.88 516.595 456.436 515.877 453.031C515.329 450.433 515.779 447.764 516.845 445.149C518.864 440.194 520.046 434.925 521.925 429.898C524.247 423.664 528.329 418.814 532.69 414.161C537.655 408.865 542.586 403.495 548.093 398.785C550.402 396.822 552.918 395.048 555.184 393.032C565.522 383.9 574.266 373.349 580.262 360.743C583.316 354.346 584.525 347.191 584.598 339.965C584.608 339.605 584.358 339.246 584.171 338.738C582.675 338.751 581.931 340.071 580.848 340.673C576.153 343.28 570.695 341.059 569.378 335.751C568.86 333.66 567.646 331.813 567.532 329.627C567.5 329.063 567.507 328.517 568.026 328.223C568.546 327.929 568.878 328.044 569.382 328.446C571.625 330.232 574.255 331.51 576.008 333.926C577.021 335.322 578.438 335.911 580.084 336.02C583.679 336.263 584.809 335.063 584.144 331.416C583.253 326.241 581.826 321.18 579.888 316.318C578.357 312.548 575.434 309.719 573.068 306.545C571.027 303.829 570.138 300.493 567.997 297.864C567.345 297.069 567.854 296.159 569.104 295.918C571.909 295.378 574.969 296.481 576.442 299.355C578.539 303.461 581.796 306.611 584.821 309.738C588.792 313.834 591.098 318.65 592.847 323.82C594.701 329.151 595.806 334.727 596.127 340.382C596.255 342.94 596.82 345.47 595.11 347.736C594.967 347.923 595.001 348.256 594.978 348.543C594.391 354.662 591.809 360.079 589.789 365.77C585.308 378.369 577.142 387.936 567.837 396.694C559.052 404.966 549.846 412.752 540.258 420.019C537.317 422.248 534.8 425.075 532.52 428.034C529.22 432.326 526.019 436.585 524.761 442.216C523.86 446.347 523.612 450.6 524.027 454.81C524.56 460.713 525.979 466.481 528.919 471.703C530.831 475.096 532.149 478.768 533.574 482.382C535.299 486.745 535.302 491.285 534.257 495.857C532.944 501.64 531.452 507.322 527.791 512.143C526.624 513.678 525.385 514.961 523.607 515.65C523.227 515.764 522.873 515.954 522.565 516.209C518.653 520.124 513.23 520.233 508.526 522.143C507.932 522.359 507.286 522.374 506.683 522.186C502.223 521.207 498.004 522.069 493.769 523.801C490.665 525.07 488.861 527.159 487.887 530.279C486.375 535.13 483.271 537.97 478.221 538.409C477.445 538.518 476.693 538.761 475.994 539.126C475.093 539.551 474.514 540.301 474.713 541.383C476.182 549.481 474.448 557.428 473.67 565.425C472.49 577.634 471.883 589.88 471.52 602.14C471.313 609.828 470.886 617.47 470.506 625.129C470.344 628.49 470.958 631.827 470.501 635.208C469.323 643.85 470.066 652.609 469.068 661.276C468.121 669.54 467.833 677.87 466.905 686.15C466.297 691.471 466.445 696.905 466.512 702.285C466.672 715.612 467.02 728.936 468.583 742.183C468.804 744.048 469.072 745.918 469.472 747.747C470.819 753.955 470.459 760.303 471.01 766.57C471.281 769.638 471.998 772.671 472.526 775.702C472.588 776.335 472.968 776.985 471.999 777.591Z"></path>
<path fill="#FD8D6C" d="M461.049 202.465C458.456 203.445 455.771 203.211 453.167 203.675C449.47 204.312 446.067 202.513 443.571 200.377C433.835 192.047 430.916 183.323 435.54 170.566C438.052 163.628 441.777 157.496 448.18 153.359C448.833 152.956 449.236 152.15 449.825 151.618C450.546 150.969 451.203 149.424 452.296 150.38C453.389 151.335 452.026 152.622 451.647 153.541C450.974 155.178 451.099 157.169 452.856 157.435C454.288 157.645 454.469 157.762 453.901 158.967C453.562 159.685 453.57 160.737 453.038 161.161C449.837 163.737 448.817 167.587 447.131 171.026C444.874 175.626 443.342 180.452 443.1 185.649C442.974 187.801 443.627 189.926 444.938 191.636C446.462 193.716 448.317 195.434 450.224 197.131C452.961 199.55 456.231 199.054 459.42 198.841C460.819 198.748 460.803 197.373 461.033 196.373C461.98 192.038 463.835 187.953 466.475 184.387C467.685 182.774 468.866 181.698 470.64 183.496C471.386 184.25 471.777 183.819 472.204 183.315C473.591 181.702 475.063 181.843 476.873 182.694C478.123 183.282 479.461 184.081 480.905 183.335C481.165 184.022 481.239 184.766 481.118 185.491C480.998 186.216 480.688 186.897 480.219 187.463C478.175 189.818 477.268 192.862 475.135 195.148C473.707 196.763 472.62 198.652 471.942 200.699C470.394 205.013 473.236 208.577 477.808 207.831C480.57 207.38 483.388 206.823 485.973 205.791C491.186 203.707 496.532 204.332 501.853 204.545C504.196 204.638 506.498 207.081 506.478 209.347C506.478 211.19 506.345 213.218 505.575 214.83C504.091 217.939 503.962 221.313 503.107 224.534C502.301 227.607 505.502 230.796 509.558 231.118C512.38 231.344 515.202 231.352 517.996 231.312C520.959 231.267 523.798 231.562 526.527 233.831C526.229 231.638 525.922 229.937 525.781 228.219C525.402 223.579 525.225 219.132 526.495 214.363C528.648 206.299 531.006 198.192 532.208 189.858C532.518 187.709 532.47 185.58 532.522 183.44C532.539 181.531 531.843 179.685 530.571 178.263C527.712 174.872 524.656 171.699 520.31 170.139C509.538 166.269 501.253 159.532 496.015 149.174C493.77 144.74 490.476 140.954 487.549 136.967C485.755 134.548 483.021 133.221 480.731 131.383C476.014 127.581 470.564 124.952 465.213 122.194C454.618 116.732 445.612 109.136 436.911 101.149C434.342 98.7643 431.108 97.2175 427.638 96.7143C415.43 94.8316 403.202 93.5817 390.785 94.6985C386.693 95.0694 382.588 96.1862 378.404 95.4807C377.174 95.271 376.388 96.8837 374.997 96.3475C374.653 95.8418 374.513 95.2247 374.606 94.6204C374.699 94.016 375.017 93.4691 375.497 93.0899C377.371 91.5216 378.819 89.6186 381.472 88.7276C391.373 85.4055 401.537 85.4619 411.709 85.8208C418.801 86.0707 425.82 87.0907 432.843 88.3325C439.361 89.3947 445.35 92.5675 449.889 97.3634C455.578 103.258 462.234 108.015 468.697 113.031C475.337 118.183 483.356 121.461 488.916 128.036C491.56 131.161 494.439 134.112 496.862 137.402C500.325 142.115 504.119 146.594 507.018 151.731C509.485 156.085 513.799 158.548 517.984 160.947C521.234 162.814 524.717 164.261 528.063 165.97C530.809 167.377 533.478 168.861 534.441 172.191C534.683 173.034 535.498 173.723 536.082 174.457C539.755 179.081 541.323 184.254 540.303 190.148C539.84 192.789 539.799 195.555 538.985 198.075C537.082 203.953 536.703 210.016 535.885 216.068C534.764 224.377 536.227 232.033 539.949 239.351C541.735 242.862 544.545 245.58 547.685 247.938C549.399 249.224 551.044 250.644 552.886 251.724C559.522 255.598 562.728 262.13 566.154 268.508C567.836 271.632 566.65 275.084 567.183 278.345C567.194 278.541 567.158 278.736 567.077 278.914C566.996 279.093 566.873 279.249 566.719 279.369C564.751 280.24 564.606 281.929 565.191 284.123C561.683 283.038 560.482 280.494 559.547 278.172C557.285 272.487 553.93 267.52 550.338 262.662C549.201 261.118 547.641 260.07 546.198 258.88C543.307 256.489 540.295 254.236 537.505 251.736C533.26 247.93 529.95 243.435 528.233 237.895C528.172 237.702 527.829 237.593 527.6 237.436C526.721 237.803 526.616 238.472 526.612 239.375C526.635 241.517 526.52 243.658 526.269 245.785C525.866 248.724 525.06 249.216 522.237 248.608C517.23 247.519 516.4 246.483 516.331 241.25C516.267 236.109 516.299 236.275 511.469 237.162C507.643 237.867 503.905 237.916 500.313 235.484C491.363 229.437 489.287 223.139 491.29 214.298C491.573 213.048 492.621 211.419 491.44 210.541C490.109 209.553 488.678 210.863 487.464 211.653C484.836 213.435 481.91 214.731 478.824 215.479C477.328 215.86 475.751 215.78 474.301 215.249C467.838 213.137 464.125 208.23 461.049 202.465Z"></path>
<path fill="#FD8D6C" d="M273.303 137.154C274.371 136.674 275.206 136.194 275.766 134.932C277.028 132.078 278.419 131.784 281.007 133.388C282.539 134.332 283.023 136.904 282.62 138.75C281.116 145.657 277.443 151.942 277.089 159.187C276.895 163.11 277.516 166.581 279.911 169.774C282.487 173.197 284.712 176.854 287.781 179.926C290.002 182.151 292.276 183.994 295.469 184.397C296.445 184.522 297.203 185.183 296.735 185.941C295.586 187.8 297.061 188.251 298.077 188.945C300.001 190.263 301.968 191.513 303.81 192.976C299.146 192.598 294.631 191.155 290.611 188.759C288.897 187.735 287.115 186.695 285.224 186.11C280.028 184.498 276.137 181.135 272.807 177.184C272.323 177.337 271.976 177.333 271.864 177.495C270.146 179.982 268.719 182.514 264.796 181.93C261.849 181.502 259.212 181.123 256.587 179.333C248.601 173.87 244.263 166.186 243.21 156.925C242.557 151.152 243.138 145.205 244.472 139.391C245.807 133.578 248.355 128.288 251.608 123.325C253.201 120.906 253.781 120.584 257.112 120.003C257.712 120.209 257.233 120.644 257.321 120.93C259.196 127.022 255.858 132.219 254.499 137.775C253.85 140.379 253.144 142.847 253.83 145.62C254.189 147.084 253.572 148.789 253.394 150.386C252.314 160.021 254.568 168.5 262.05 175.128C264.09 176.938 266.312 177.894 269.009 176.374C270.09 175.765 270.714 175.164 270.114 173.854C267.489 168.105 266.634 161.803 264.268 155.921C258.22 140.863 259.833 126.002 266.655 111.5C270.041 104.308 274.315 97.6838 278.939 91.2492C281.794 87.278 285.547 84.2543 289.079 80.9725C290.111 80.0129 291.3 80.2992 292.352 79.9928C298.198 78.2793 303.762 75.0459 310.604 76.7191C309.858 75.0701 308.39 76.1788 307.701 75.1064C308.911 74.3484 310.12 74.6468 311.196 74.8806C313.671 75.4172 316.114 76.0901 318.514 76.8965C319.51 77.2351 321.457 77.2996 320.252 79.4001C320.163 79.5533 320.594 80.0694 320.852 80.3476C324.275 84.0486 324.574 88.2335 323.517 93.0191C322.654 96.9298 322.372 100.962 320.792 104.606C319.482 105.102 320.082 103.251 318.974 103.489C317.333 105.445 319.679 108.223 317.655 110.42C315.833 108.71 315.317 106.614 315.591 104.372C315.927 101.432 316.425 98.5128 317.083 95.6276C318.083 91.4105 316.228 87.9674 314.164 84.6977C312.551 82.1417 309.354 81.9199 306.669 83.6616C294.372 91.6362 284.68 101.933 278.85 115.512C276.266 121.535 274.541 127.865 273.206 134.283C273.017 135.198 272.843 136.154 273.303 137.154Z"></path>
<path fill="#FD8D6C" d="M363.266 149.033C362.157 149.307 361.306 149.714 359.984 148.831C355.202 145.646 349.715 144.316 344.039 143.872C339.326 143.501 335.705 145.324 333.335 149.517C332.409 151.149 331.394 152.729 330.295 154.25C329.158 155.764 328.432 157.546 328.186 159.423C327.614 165.01 326.509 170.562 326.606 176.202C326.69 181.355 330.315 183.617 334.996 181.407C339.245 179.391 343.293 176.972 346.764 173.771C348.921 171.776 351.122 169.824 352.941 167.462C354.42 165.531 357.093 165.305 358.928 163.777C359.468 163.329 360.27 163.72 360.685 164.293C361.306 165.143 362.532 165.736 363.08 165.502C366.386 164.123 367.289 166.849 367.967 168.683C368.688 170.627 369.757 171.074 371.466 171.191C377.993 171.638 383.698 173.908 388.302 178.706C388.994 179.338 389.822 179.803 390.721 180.065C391.697 180.391 392.459 180.738 392.459 181.915C392.477 182.463 392.309 183.001 391.981 183.44C391.654 183.88 391.187 184.195 390.657 184.334C388.476 185.024 386.148 185.098 383.928 184.548C381.053 183.852 378.386 182.478 376.151 180.54C374.393 179.025 372.595 178.633 370.224 179.266C366.898 180.157 363.641 179.158 360.601 177.654C359.668 177.125 358.777 176.525 357.936 175.86C356.444 174.819 355.009 174.67 353.723 176.162C351.876 178.307 349.784 180.004 348.389 182.83C346.498 186.669 342.511 189.257 337.862 189.902C335.221 190.269 332.54 190.14 329.509 189.958C330.65 195.338 333.409 200.241 337.415 204.009C339.922 206.428 342.906 208.254 345.913 210.056C350.622 212.878 355.42 212.766 360.165 210.621C364.54 208.649 369.144 207.053 372.974 204.021C374.135 203.106 375.393 203.577 376.732 203.364C373.623 204.513 373.208 207.911 370.954 209.754C368.882 211.447 365.713 211.862 364.77 214.943C364.689 215.217 364.112 215.37 363.745 215.527C355.65 218.99 347.849 218.688 340.459 213.632C332.395 208.129 326.9 200.731 324.154 191.369C323.489 189.104 322.344 187.668 320.328 186.193C314.079 181.621 308.697 176.223 308.193 167.724C308.021 165.206 308.452 162.684 309.451 160.366C310.797 157.013 311.826 153.541 312.523 149.996C313.374 145.997 315.748 142.788 317.446 139.22C317.603 138.881 318.151 138.663 318.192 138.349C318.829 133.511 322.679 131.515 326.09 129.032C330.323 125.948 335.568 125.637 339.967 128.467C341.249 129.274 342.075 130.08 341.93 131.955C341.833 133.569 342.167 135.18 342.898 136.623C343.575 137.978 342.253 137.66 340.676 138.293C343.857 138.393 346.228 138.946 348.336 138.442C354.755 136.91 359.194 140.514 364.802 143.909C360.464 144.312 358.754 140.28 354.989 140.752C357.867 144.151 363.024 144.151 365.036 148.194L363.266 149.033ZM325.695 148.63C327.06 146.46 328.876 144.609 331.02 143.203C333.101 141.828 334.246 139.139 337.124 138.926C335.129 134.983 332.645 134.309 330.758 137.41C328.63 140.885 326.602 144.485 325.695 148.63Z"></path>
<path fill="#FD8D6C" d="M318.935 526.309C319.741 527.369 319.999 527.554 320.044 527.78C320.947 532.529 323.978 536.42 325.357 540.964C326.349 544.241 328.179 545.85 331.808 546.443C336.932 547.273 341.605 549.85 346.322 552.051C351.902 554.651 356.804 558.502 362.626 560.65C364.174 561.223 366.198 561.86 365.952 564.122C365.726 566.222 364.396 567.811 362.598 568.827C361.528 569.405 360.307 569.642 359.098 569.504C354.567 569.101 349.999 568.964 345.5 568.351C342.395 567.948 339.585 568.387 336.981 569.911C332.094 572.778 326.688 574.233 321.225 573.898C316.963 573.636 312.585 574.201 308.287 572.197C304.445 570.407 299.853 571.306 295.608 571.496C288.919 571.757 282.286 572.824 275.852 574.673C271.623 575.91 267.354 576.967 263.108 578.132C259.524 579.111 256.222 579.277 254.15 575.31C253.376 573.83 251.791 573.79 250.316 573.523C248.546 573.205 248.175 572.064 249.384 570.778C250.073 570.144 250.835 569.594 251.654 569.141C259.835 563.831 267.914 558.356 276.247 553.285C281.716 549.95 287.382 546.949 293.213 544.298C298.389 541.951 301.97 543.137 305.388 547.56C306.683 549.233 308.053 550.051 310.174 549.467C312.593 548.793 315.214 548.785 317.371 547.144C318.713 546.124 320.418 546.273 322.031 546.225C323.454 546.181 323.942 545.491 323.337 544.108C322.854 543.008 322.608 541.778 321.999 540.758C319.483 536.525 319.745 531.784 318.935 526.309ZM258.057 572.633C259.669 573.064 260.415 572.846 261.169 572.54C269.482 569.165 278.187 567.069 286.839 564.843C292.177 563.473 297.76 564.037 303.203 563.348C307.08 562.853 311.019 563.358 314.645 564.815C318.6 566.367 322.652 565.92 326.393 564.251C330.861 562.263 335.38 560.529 340.129 559.667C340.097 558.256 339.053 558.231 338.42 557.917C333.985 555.691 329.074 554.692 324.442 552.962C323.341 552.559 321.801 552.389 320.914 553.071C318.999 554.542 316.669 554.684 314.564 555.361C308.747 557.232 302.957 557.832 298.462 552.281C298.381 552.176 298.297 552.071 298.208 551.97C296.946 550.527 295.7 550.482 293.991 551.49C288.129 554.962 282.174 558.272 276.227 561.606C270.196 564.984 264.725 569.262 258.053 572.633H258.057Z"></path>
<path fill="#FD8D6C" d="M307.953 245.573C308.574 245.679 309.153 245.953 309.628 246.366C310.103 246.779 310.455 247.315 310.646 247.915C311.856 251.1 314.42 253.398 315.887 256.499C319.044 263.167 323.584 268.997 329.067 273.98C331.212 275.935 332.901 278.499 336.082 279.092C336.868 279.241 337.602 279.556 338.429 279.37C339.936 279.028 340.299 278.217 339.529 276.774C338.646 275.121 337.001 273.839 336.683 271.936C336.114 268.569 334.554 265.679 332.575 262.764C334.768 262.82 335.11 264.493 335.731 265.703C336.538 267.239 338.239 267.098 339.243 267.989C340.372 268.981 341.037 270.497 342.194 271.682C341.025 269.666 341.791 267.473 340.952 265.13C345.036 267.719 348.669 270.146 352.422 272.363C355.482 274.173 357.607 274.157 361.465 272.694C359.45 267.924 357.893 263.018 357.381 257.837C357.19 256.511 357.098 255.173 357.107 253.834C357.464 246.746 358.35 239.695 359.756 232.74C360.45 229.313 362.175 226.289 364.191 223.362C364.945 222.258 365.945 222.274 366.896 221.947C368.311 221.463 370.448 222.576 370.928 220.068C373.182 219.939 375.524 219.331 377.608 220.512C378.576 221.06 379.802 221.58 380.265 222.87C378.697 224.527 376.681 223.677 374.903 223.907C371.516 224.31 368.706 226.301 368.581 229.035C368.481 231.305 367.993 233.583 368.178 235.804C368.279 237.389 368.093 238.978 367.63 240.497C366.524 244.651 366.349 248.999 367.118 253.229C367.9 257.551 367.723 262.006 369.303 266.251C373.581 277.75 381.132 285.74 392.888 289.82C397.376 291.373 401.794 292.32 406.463 291.546C406.652 293.215 405.971 293.602 404.891 293.759C403.125 294.009 401.101 293.55 400.153 295.928C399.819 296.767 398.456 296.436 397.533 296.497C391.082 296.9 385.522 294.3 380.197 291.183C373.746 287.421 368.662 282.108 363.965 276.407C363.159 275.407 362.171 274.738 361.417 275.968C359.704 278.757 356.66 280.08 354.692 282.608C352.507 285.43 349.451 285.51 346.169 283.345C345.206 282.708 344.77 281.185 343.307 281.447C342.001 281.68 341.638 283.116 340.69 283.841C337.667 286.147 334.348 285.623 331.151 284.563C323.995 282.196 318.883 277.1 314.218 271.444C310.396 266.816 308.328 261.695 308.634 255.555C308.784 252.281 308.199 248.959 307.953 245.573Z"></path>
<path fill="#FD8D6C" d="M476.161 418.513C476.003 413.599 477.011 409.006 478.519 404.556C479.603 401.388 480.928 398.308 482.482 395.343C484.974 390.566 488.856 387.683 494.348 386.772C501.476 385.562 505.491 379.023 503.507 372.218C502.43 368.32 500.408 364.749 497.621 361.82C492.703 356.724 487.441 351.91 483.68 345.814C482.2 343.423 480.821 340.976 479.535 338.46C478.916 337.335 478.564 336.083 478.505 334.801C478.446 333.518 478.683 332.239 479.197 331.062C482.274 323.907 486.699 317.411 492.231 311.928C493.763 310.428 495.456 310.775 496.327 312.762C497.258 314.843 496.762 316.899 495.702 318.81C495.136 319.881 494.407 320.858 493.541 321.705C489.945 324.995 489.106 329.526 487.857 333.884C487.453 335.287 487.961 336.561 488.663 337.723C491.541 342.581 494.642 347.282 498.742 351.233C502.524 354.881 505.664 359.058 508.797 363.247C515.707 372.484 512.579 385.603 504.362 392.533C502.53 394.14 500.276 395.189 497.867 395.557C491.844 396.319 488.651 400.145 487.099 405.499C484.478 414.542 484.434 423.428 489.163 431.995C491.138 435.583 494.372 437.684 497.395 440.087C499.992 442.147 502.637 444.155 505.269 446.17C505.701 446.501 506.205 446.791 505.866 447.424C505.806 447.544 505.721 447.651 505.618 447.737C505.515 447.823 505.395 447.887 505.266 447.925C505.137 447.962 505.002 447.973 504.869 447.957C504.735 447.94 504.607 447.896 504.491 447.827C502.685 446.791 500.887 446.928 499.125 447.795C498.125 448.287 497.335 447.836 496.452 447.557C493.936 446.751 492.074 444.973 490.058 443.441C483.712 438.603 478.813 432.785 476.963 424.754C476.483 422.601 476.507 420.469 476.161 418.513Z"></path>
<path fill="#FD8D6C" d="M407.557 267.194C409.601 270.242 412.472 271.532 414.943 273.274C416.527 274.387 417.797 273.197 418.858 272.25C419.918 271.303 418.983 270.279 418.382 269.428C415.084 264.856 411.996 260.207 410.008 254.845C405.795 243.46 406.138 232.522 412.871 222.189C415.241 218.56 418.741 215.956 422.619 214.125C426.131 212.464 429.751 213.375 433.013 215.121C434.993 216.186 435.029 218.347 433.211 219.77C431.392 221.193 429.489 222.374 427.248 222.935C426.038 223.237 425.062 223.604 424.619 225.019C423.006 230.216 421.216 235.32 420.442 240.799C419.346 248.516 421.341 255.462 424.813 262.038C430.586 272.98 439.387 281.083 449.97 287.308C451.462 288.187 452.679 289.401 454.139 290.264C456.78 291.832 459.783 291.703 463.049 291.473C462.368 293.674 460.336 293.815 459.223 293.957C455.473 294.436 451.76 294.65 447.898 293.416C439.758 290.816 434.053 285.087 428.175 279.455C426.369 277.725 424.514 276.048 422.494 274.169C421.47 279.624 417.943 281.644 413.258 279.926C412.258 279.559 411.149 279.426 410.234 278.93C407.069 277.209 403.941 275.5 403.324 271.323C403.005 269.174 401.542 267.864 399.175 267.658C395.143 267.311 391.918 265.461 388.987 262.671C387.516 261.272 387.298 259.385 386.165 257.901C385.661 257.232 386.403 256.66 387.165 256.724C387.689 256.791 388.182 257.013 388.58 257.361C392.535 260.893 397.554 261.147 402.405 261.977C403.961 262.243 405.227 260.26 406.952 261.627C408.041 262.493 409.863 262.384 410.21 264.247C410.557 266.11 409.065 266.65 407.557 267.194Z"></path>
<path fill="#FD8D6C" d="M342.256 494.44C339.895 494.009 337.711 494.871 335.79 492.927C332.819 489.958 329.367 487.618 328.289 482.825C327.407 478.903 326.715 475.037 326.715 470.982C326.675 467.549 326.47 464.121 326.101 460.711C325.522 454.953 326.329 449.312 327.281 443.722C327.64 441.589 328.021 439.52 327.844 437.374C327.451 432.46 328.631 427.668 328.73 422.802C328.962 411.597 328.08 400.481 327.285 389.349C326.959 384.785 327.045 380.178 326.242 375.661C325.546 371.752 327.584 368.524 328.427 365.007C330.056 358.206 334.255 352.94 337.679 347.225C339.92 343.545 342.508 340.133 345.401 337.045C346.369 335.994 347.125 336.024 348.345 336.907C347.707 338.235 346.77 339.493 346.487 340.92C345.357 346.885 341.225 350.832 338.332 355.534C334.79 361.297 333.216 367.119 334.33 374.161C335.31 380.333 335.243 386.703 335.633 392.982C335.684 393.844 335.581 394.736 335.766 395.568C337.785 404.382 337.455 413.42 337.907 422.375C338.092 425.996 336.876 429.435 336.774 433.021C336.746 434.021 336.51 435.02 336.546 436.012C336.707 440.481 336.439 444.838 334.834 449.058C333.924 451.461 333.551 454.067 333.748 456.66C334.306 463.918 332.429 471.145 333.803 478.425C334.708 483.23 336.4 487.372 339.899 490.544C340.883 491.419 341.941 492.332 342.256 494.44Z"></path>
<path fill="#FD8D6C" d="M49.0729 298.43C50.7541 301.724 50.2824 304.844 50.2824 307.815C50.2824 321.809 47.5691 335.461 44.7671 349.1C43.231 356.558 41.6465 364.017 40.5136 371.548C39.9411 375.366 39.9371 379.281 39.1147 383.095C38.5018 385.917 39.6912 388.614 39.9573 391.38C40.046 392.327 40.9612 392.553 41.5699 393.049C45.7992 396.548 49.9679 400.121 54.2818 403.531C57.5555 406.108 59.5956 409.478 61.2485 413.183C64.0707 419.553 65.8003 426.25 67.1227 433.075C67.5017 435.023 66.6147 436.752 66.5341 438.615C66.4978 439.498 65.7277 439.949 64.8045 439.909C63.7885 439.861 63.3974 439.103 63.3611 438.296C63.1192 432.455 60.0632 427.435 58.6038 421.948C58.1159 420.11 56.5879 418.811 55.2454 417.513C50.0163 412.474 44.2631 408.091 38.6631 403.551C36.2829 401.642 34.536 399.058 33.6517 396.137C31.0755 388.243 31.9302 380.22 32.6196 372.233C33.1478 366.101 34.5669 360.086 35.8127 354.059C35.8864 353.527 35.9914 353.001 36.1272 352.482C39.7557 341.782 40.8442 330.477 43.8922 319.632C44.4451 317.56 44.7163 315.423 44.6985 313.278C44.6985 308.481 46.9482 304.276 48.0005 299.764C48.069 299.426 48.4681 299.159 49.0729 298.43Z"></path>
<path fill="#FD8D6C" d="M348.616 292.631C347.148 294.974 345.068 296.953 344.608 299.888C344.435 300.981 343.153 301.404 342.463 302.195C338.476 306.775 333.122 307.867 327.445 308.581C320.362 309.468 314.435 306.811 308.952 302.957C302.385 298.34 295.777 293.571 291.435 286.656C284.5 275.618 280.146 263.886 280.747 250.371C281.097 242.518 283.569 235.249 284.706 227.653C284.839 226.758 285.109 225.815 285.943 225.21C287.032 224.428 288.318 224.807 288.628 226.101C289.798 230.995 291.285 235.857 291.914 240.824C292.317 243.925 292.068 247.15 292.515 250.319C293.426 256.77 293.184 263.37 294.898 269.719C297.187 278.285 301.689 286.098 307.952 292.373C310.932 295.389 313.887 298.469 318.088 300.058C326.353 303.182 333.989 303.069 340.996 296.961C343.157 295.079 345.709 293.643 348.084 292.007L348.616 292.631Z"></path>
<path fill="#FD8D6C" d="M563.375 359.498C562.476 367.453 554.328 371.352 547.652 366.469C546.103 368.235 544.672 370.34 542.814 371.912C535.903 377.718 526.389 376.202 519.648 371.509C513.362 367.13 508.359 361.756 505.992 354.173C504.642 349.879 503.718 345.706 504.513 341.179C505.629 334.804 507.037 328.567 510.782 323.113C511.387 322.23 511.83 320.972 513.149 321.548C514.39 322.089 514.673 323.221 514.221 324.6C512.85 328.785 513.415 333.047 513.898 337.296C514.058 338.083 514.131 338.884 514.116 339.687C513.112 349.036 517.269 356.62 522.502 363.752C526.598 369.336 537.101 371.243 542.511 367.219C545.692 364.857 545.761 365.05 543.656 361.462C539.685 354.689 537.915 347.407 538.903 339.55C539.306 336.272 540.782 333.45 542.802 330.89C543.282 330.225 543.979 329.748 544.774 329.543C545.568 329.337 546.409 329.416 547.152 329.765C548.688 330.426 549.938 331.349 549.655 333.72C549.373 336.091 549.756 338.461 548.305 340.61C547.966 341.106 547.962 341.908 547.99 342.561C548.252 348.827 549.567 354.798 553.199 360.047C555.263 363.03 555.848 363.071 559.198 361.809C560.662 361.256 561.819 360.135 563.375 359.498Z"></path>
<path fill="#FD8D6C" d="M146.312 370.197C145.304 370.814 144.631 370.197 143.893 370.019C140.051 369.032 138.019 370.495 137.704 374.62C137.655 375.407 137.346 376.155 136.825 376.748C134.128 379.974 133.455 384.005 132.39 387.847C131.741 390.206 132.274 390.855 134.725 391.617C136.367 392.198 138.045 392.673 139.748 393.04C144.901 393.939 148.767 396.729 152.126 400.62C155.411 404.426 155.093 408.627 153.42 412.63C151.794 416.655 148.835 420 145.038 422.105C143.647 422.875 142.462 424.012 141.151 424.927C140.501 425.399 139.804 425.805 139.071 426.136C135.124 427.866 135.156 427.866 133.467 432.349C132.661 434.462 131.451 436.445 130.879 438.61C130.5 440.05 128.863 440.122 128.484 442.126C127.621 439.562 127.855 437.667 128.625 435.808C130.274 431.829 128.585 428.225 127.464 424.54C126.863 422.552 124.682 423.278 123.279 421.915C125.19 420.77 126.403 419.093 127.544 417.323C128.125 416.424 128.964 415.755 130.266 416.113C133.088 416.92 135.346 415.456 137.208 413.775C139.982 411.275 142.526 408.486 144.288 405.111C145.635 402.519 144.921 400.459 142.139 399.527C139.905 398.716 137.556 398.264 135.18 398.189C131.293 398.066 127.527 396.805 124.351 394.56C120.67 391.968 121.033 387.106 124.573 384.017C126.218 382.582 126.907 380.429 127.641 378.502C128.409 376.526 129.593 374.739 131.112 373.261C132.495 371.838 134.362 370.64 134.543 368.124C134.648 366.669 136.531 365.564 137.829 365.766C141.046 366.294 144.445 366.85 146.312 370.197ZM123.815 390.077C123.876 392.218 124.359 393.097 125.605 393.665C126.077 392.181 125.206 391.484 123.827 390.077H123.815Z"></path>
<path fill="#FD8D6C" d="M98.3785 362.125C95.5563 365.35 92.8228 368.318 88.0816 369.326C82.5864 370.495 77.5992 369.805 73.2208 366.637C67.762 362.69 64.2504 357.235 62.4845 350.635C60.7186 344.035 61.4605 337.645 62.9119 331.214C63.7182 327.586 64.6294 323.929 65.7098 320.349C67.0605 315.862 69.0239 311.681 72.7088 308.504C73.5474 309.435 72.3903 310.221 72.7733 310.899C75.6399 315.942 73.628 320.897 72.471 325.816C71.2977 330.811 70.5922 335.802 71.2373 340.935C71.3736 341.734 71.3899 342.549 71.2856 343.354C70.3382 348.845 72.6403 353.667 74.773 358.343C76.4099 361.932 79.345 364.33 83.929 364.302C87.5404 364.305 91.1247 363.678 94.5202 362.448C95.6128 362.045 96.7174 361.67 97.8181 361.287C98.0035 361.537 98.189 361.823 98.3785 362.125Z"></path>
<path fill="#FD8D6C" d="M416.455 117.717C417.725 117.624 418.785 116.911 419.68 116.177C421.333 114.838 422.66 113.492 425.176 113.456C428.627 113.407 431.767 113.589 434.646 115.762C436.448 117.12 438.678 117.902 440.177 119.705C441.31 121.059 442.943 122.055 441.98 124.45C441.653 125.256 442.629 126.897 443.947 127.611C444.701 128.014 445.866 127.853 446.197 129.183C443.189 129.272 440.931 127.288 439.395 125.579C437.859 123.869 436.23 123.692 434.408 123.031C430.61 121.652 427.042 122.184 423.434 123.341C421.394 123.998 419.402 124.785 417.415 125.595C415.903 126.212 414.907 127.381 413.863 128.679C410.355 133.037 409.299 138.262 408.307 143.479C407.408 148.213 405.654 152.728 405.082 157.554C404.623 161.273 404.694 165.038 405.291 168.738C405.755 171.56 407.025 173.729 408.92 175.705C410.21 177.043 411.855 178.039 412.851 179.684C409.488 180.893 406.755 179.869 404.34 177.087C398.284 170.056 397.736 161.715 399.212 153.284C400.913 143.548 405.441 134.848 411.137 126.796C412.19 125.309 413.532 124.002 411.637 122.184C411.153 121.716 411.879 121.313 412.222 121.035C413.657 119.862 415.129 118.733 416.588 117.588L416.455 117.717Z"></path>
<path fill="#FD8D6C" d="M476.073 279.581C476.94 277.807 475.629 275.594 477.641 274.271C478.351 273.808 478.629 273.413 479.592 274.102C481.814 275.643 483.639 277.687 484.918 280.069C487.74 285.395 491.026 290.402 495.594 294.462C496.848 295.579 496.582 296.728 494.997 297.099C492.276 297.736 489.696 298.211 487.361 295.619C485.301 293.329 483.285 291.003 481.278 288.664C480.612 287.886 480.205 286.729 478.859 286.838C473.182 287.29 469.65 283.669 466.36 279.92C462.131 275.082 458.837 269.623 455.955 263.793C453.58 259.011 453.536 254.452 454.568 249.557C454.725 248.807 455.064 248.259 455.777 248.178C457.188 248.017 458.837 248.348 459.216 249.666C460.289 253.375 462.958 256.242 463.841 260.148C465.352 266.873 468.969 272.755 473.557 277.956C474.158 278.67 474.686 279.533 476.073 279.581Z"></path>
<path fill="#FD8D6C" d="M164.391 259.566C162.944 261.312 163.505 262.743 164.012 264.747C165.476 270.549 169.657 274.588 172.427 279.511C173.37 281.192 175.249 281.781 176.749 282.821C178.087 283.744 178.144 285.966 179.853 287.195C184.864 290.8 185.88 290.949 191.053 287.224C191.859 286.631 192.762 286.26 193.653 286.708C194.718 287.24 194.294 288.32 194.21 289.215C193.883 292.566 191.589 295.448 187.622 296.118C181.675 297.117 176.462 295.448 171.878 291.808C168.874 289.392 165.623 287.301 162.178 285.571C155.84 282.41 150.889 277.507 147.039 271.524C146.779 271.217 146.561 270.877 146.39 270.512C146.023 269.303 145.253 267.819 146.39 266.956C147.712 265.949 148.434 267.436 149.144 268.368C149.215 268.48 149.31 268.577 149.422 268.65C154.066 270.98 157.622 274.923 162.658 277.798C162.255 275.286 161.96 273.282 161.606 271.295C161.163 268.784 161.065 266.224 161.315 263.687C161.497 261.828 162.17 260.167 164.391 259.566Z"></path>
<path fill="#FD8D6C" d="M215.481 283.678C208.345 283.501 202.301 280.731 197.479 275.47C193.371 270.982 190.186 265.911 188.481 259.968C187.86 257.791 186.787 255.743 185.904 253.642C185.491 252.8 185.256 251.882 185.215 250.945C185.215 249.643 186.142 249.098 187.005 248.526C188.138 247.78 188.666 249.018 188.98 249.538C191.399 253.549 195.431 256.114 198.12 259.875C200.358 263.004 202.095 266.491 204.889 269.233C206.224 270.547 207.341 272.083 208.667 273.405C213.953 278.683 220.762 277.84 224.508 271.494C224.911 270.821 224.548 269.43 226.152 269.837C227.471 270.168 228.773 271.232 228.571 272.127C228.14 274.014 229.87 276.159 227.801 277.82C227.544 278.049 227.364 278.351 227.284 278.685C227.204 279.02 227.228 279.371 227.354 279.691C227.809 280.767 227.261 280.9 226.419 281.247C222.911 282.634 219.444 284.13 215.481 283.678Z"></path>
<path fill="#FD8D6C" d="M220.712 112.56C221.74 112.56 222.663 112.467 221.869 114.035C220.164 117.386 217.596 120.119 215.475 123.167C213.056 126.63 211.512 130.291 211.133 134.532C210.806 138.161 208.972 141.386 207.956 144.869C207.5 146.422 206.932 147.817 207.553 149.522C207.879 150.437 207.674 151.655 207.408 152.655C206.23 157.065 207.831 160.718 210.911 163.54C213.108 165.556 214.395 168.564 217.535 169.668C218.39 169.967 218.596 171.16 217.322 171.801C216.173 172.378 215.044 172.289 213.814 172.087C208.315 171.184 204.485 167.769 201.134 163.697C199.953 162.258 199.09 160.561 198.103 158.968C196.369 156.17 195.595 153.324 197.768 150.373C197.95 150.172 198.059 149.917 198.078 149.647C197.675 145.817 200.618 143.474 202.11 140.483C202.34 140.011 202.848 139.56 202.84 139.104C202.735 134.024 206.021 130.73 208.887 127.138C210.677 124.884 212.048 122.3 213.673 119.909C214.313 119.065 214.999 118.258 215.729 117.49L218.37 116.144C219.43 115.152 220.676 114.257 220.712 112.56Z"></path>
<path fill="#FD8D6C" d="M492.535 235.91C492.628 236.2 494.393 238.14 494.462 238.232C495.293 239.377 495.905 241.171 496.99 241.526C498.691 242.087 498.199 243.111 498.095 243.978C497.808 246.767 497.171 249.529 497.006 252.323C496.603 258.838 498.284 264.704 502.88 269.583C504.67 271.478 506.605 272.042 508.988 270.925C511.484 269.756 513.975 268.595 516.648 267.623C515.036 269.559 514.451 272.102 512.508 273.788C512.141 274.102 511.98 274.642 511.367 274.63C508.049 274.574 504.731 275.146 501.413 274.63C500.223 274.396 499.13 273.814 498.272 272.957C489.991 265.337 486.35 256.097 488.568 244.84C488.87 243.292 489.297 241.837 489.043 240.135C488.681 237.728 490.709 236.85 492.535 235.91Z"></path>
<path fill="#FD8D6C" d="M497.743 493.11C490.989 493.259 484.99 487.563 483.68 481.12C483.37 479.588 483.934 478.165 484.261 476.778C485.603 471.077 487.889 465.852 492.832 462.244C493.667 461.577 494.581 461.016 495.553 460.575C496.606 460.172 497.166 460.575 496.424 461.683C496.021 462.3 496.154 462.623 496.727 462.893C498.238 463.627 498.005 464.377 496.771 465.159C496.528 465.274 496.304 465.428 496.11 465.614C494.094 468.078 490.832 470.166 490.949 473.464C491.074 477.092 492.707 480.721 494.682 483.886C496.154 486.256 500.085 486.764 503.088 485.345C504.814 484.539 506.141 483.188 507.62 482.039C508.475 481.378 509.604 480.737 510.547 481.447C511.49 482.156 511.083 483.301 510.716 484.39C509.16 489.006 503.072 493.151 497.743 493.11Z"></path>
<path fill="#FD8D6C" d="M306.128 601.866C302.709 601.644 299.371 601.197 296.049 601.277C292.292 601.362 290.868 597.866 288.038 596.592C287.534 596.367 287.675 595.649 288.038 595.177C288.756 594.202 289.498 593.012 290.893 593.383C293.263 594.012 295.682 593.754 298.069 594.057C302.056 594.556 306.08 594.46 310.087 594.266C313.968 594.076 317.773 593.117 321.279 591.444C322.489 590.876 323.722 590.093 324.952 591.246C325.561 591.819 325.428 595.984 324.819 596.588C321.94 599.451 318.864 601.951 314.47 601.894C311.652 601.838 308.85 601.866 306.128 601.866Z"></path>
<path fill="#FD8D6C" d="M74.4727 382.043C74.6742 385.172 77.0449 387.78 76.3716 390.997C76.2869 391.4 76.8151 391.546 77.2263 391.4C78.2826 391.058 78.6051 391.695 78.9035 392.533C79.605 394.497 79.3066 397.089 82.2215 397.722C82.6247 397.807 82.8061 398.859 83.0601 399.476C84.0277 401.822 85.0477 404.149 85.9226 406.531C88.7448 414.248 94.2399 418.739 102.275 420.166C103.275 420.344 104.085 420.622 104.384 421.69C98.2716 425.013 92.841 423.194 87.8054 419.328C83.8455 416.33 80.7912 412.297 78.9801 407.672C77.2585 403.189 75.9508 398.557 75.0734 393.836C75.0261 393.706 74.9949 393.57 74.9806 393.432C75.0129 389.602 74.6944 385.792 74.4727 382.043Z"></path>
<path fill="#FD8D6C" d="M525.679 261.679C529.618 261.255 530.058 261.771 529.667 265.787C529.582 267.086 529.279 268.362 528.772 269.561C527.292 272.862 528.163 276.37 528.445 279.785C528.675 282.559 528.502 282.708 525.796 282.103C522.168 281.297 520.317 278.624 519.535 275.483C518.197 270.121 518.213 264.868 523.599 261.288C523.877 261.106 524.22 260.977 523.861 260.223C523.091 258.611 524.264 257.292 525.804 257.643C526.325 257.76 526.784 258.002 526.454 258.748C526.244 259.215 526.264 259.776 526.099 260.272C525.933 260.767 525.345 261.062 525.679 261.679Z"></path>
<path fill="#FD8D6C" d="M498.514 297.27C500.239 299.89 501.651 302.672 503.888 304.974C507.005 308.199 510.214 310.671 515.024 309.26C515.862 309.014 516.725 309.078 517.213 309.776C517.749 310.55 517.144 311.215 516.685 311.917C514.504 315.235 510.815 316.609 507.162 315.013C500.8 312.227 497.268 307.139 495.873 300.422C495.414 298.169 497.244 297.987 498.514 297.27Z"></path>
<path fill="#FD8D6C" d="M403.672 191.941C405.881 192.183 405.385 193.699 405.668 194.764C405.841 195.401 405.748 196.308 406.147 196.65C407.063 197.433 406.893 195.687 407.357 195.876C408.115 196.195 407.667 197.598 407.76 197.594C411.034 197.4 410.102 200.622 411.268 202.077C412.542 203.666 412.747 206.02 413.973 207.794C414.614 208.725 414.4 209.866 414.666 210.89C414.828 211.499 414.473 212.128 413.945 212.055C412.279 211.834 410.409 212.527 408.974 211.249C406.861 209.334 404.942 206.935 404.652 204.238C404.18 200.19 404.305 196.074 403.672 191.941Z"></path>
<path fill="#FD8D6C" d="M299.147 507.659C303.146 507.611 303.581 508.377 302.332 510.711C301.082 513.045 298.748 513.86 296.47 514.561C295.063 514.976 293.694 515.508 292.377 516.154C289.608 517.553 287.6 517.097 285.588 514.868C284.475 513.63 284.806 512.166 285.991 511.945C290.97 511.017 295.075 507.256 299.147 507.659Z"></path>
<path fill="#FD8D6C" d="M331.046 515.491C328.57 514.761 325.849 513.991 323.462 512.483C321.974 511.544 321.793 509.75 321.801 508.169C321.801 507.314 322.664 506.073 323.66 507.169C324.869 508.504 325.804 508.056 327.155 507.597C329.88 506.665 331.638 507.331 333.263 509.612C333.985 510.633 334.71 511.515 336.041 511.721C337.186 511.894 337.589 512.753 337.5 513.773C337.412 514.793 336.484 514.805 335.682 514.89C334.473 515.011 333.287 515.176 332.094 515.325L331.046 515.491Z"></path>
<path fill="#FD8D6C" d="M302.912 527.017C303.178 528.924 303.315 530.52 302.956 532.125C302.553 534.052 302.553 536.157 300.271 537.136C299.755 537.358 299.465 538.16 299.13 538.749C298.703 539.467 298.848 540.93 297.473 540.45C296.501 540.108 296.667 538.838 296.513 537.979C296.243 536.483 296.888 535.06 297.279 533.681C298.287 530.145 300.17 526.912 301.033 523.308C301.096 523.046 301.256 522.818 301.48 522.668C301.704 522.519 301.976 522.459 302.242 522.501C302.968 522.602 302.887 523.239 302.9 523.735C302.932 524.912 302.912 526.118 302.912 527.017Z"></path>
<path fill="#FD8D6C" d="M124.629 463.923C118.848 460.141 118.86 451.191 122.766 446.506C123.44 445.7 124.02 444.732 125.149 444.458C125.514 444.326 125.913 444.326 126.278 444.458C126.394 444.527 126.494 444.621 126.57 444.732C126.646 444.843 126.698 444.97 126.72 445.103C126.743 445.236 126.736 445.372 126.701 445.502C126.666 445.633 126.602 445.754 126.516 445.857C124.544 448.196 124.06 451.55 121.383 453.392C121.267 453.458 121.166 453.547 121.085 453.654C121.005 453.761 120.949 453.883 120.919 454.013C120.889 454.144 120.886 454.279 120.911 454.41C120.937 454.541 120.989 454.665 121.065 454.775C122.508 457.335 122.25 460.686 124.758 462.766C124.915 462.911 124.685 463.5 124.629 463.923Z"></path>
<path fill="#FD8D6C" d="M307.922 158.977L309.047 153.566C309.728 155.598 309.43 157.421 307.922 158.977Z"></path>
<path fill="#FD8D6C" d="M416.59 117.581L414.195 117.275C415.941 116.271 416.808 115.11 418.602 115.102C418.352 116.521 416.639 116.484 416.461 117.71L416.59 117.581Z"></path>
<path fill="#FD8D6C" d="M218.328 116.138L215.688 117.484C216.26 115.936 217.538 115.033 218.78 114.094C218.629 114.776 218.479 115.458 218.328 116.138Z"></path>
<path fill="#FD8D6C" d="M287.219 223.649C286.844 223.681 286.413 223.733 286.372 223.221C286.359 222.963 286.447 222.709 286.618 222.515C286.789 222.32 287.029 222.201 287.288 222.181C287.412 222.145 287.543 222.139 287.67 222.163C287.797 222.186 287.916 222.24 288.019 222.318C288.122 222.396 288.205 222.498 288.261 222.614C288.317 222.73 288.346 222.858 288.344 222.987C288.336 223.653 287.727 223.636 287.219 223.649Z"></path>
<path fill="#FD8D6C" d="M363.258 149.038L365.048 148.191C365.592 148.236 366.197 148.502 366.12 148.998C365.987 149.925 364.911 149.582 364.334 149.949C363.383 150.554 363.484 149.522 363.258 149.038Z"></path>
<path fill="#FD8D6C" d="M228.329 105.07C227.37 106.167 226.962 106.808 225.91 106.82C226.204 105.828 226.962 105.562 228.329 105.07Z"></path>
<path fill="#FD8D6C" d="M183.254 184.726C183.443 184.291 183.83 184.359 184.181 184.38C184.532 184.4 184.988 184.505 184.617 184.96C184.339 185.169 183.995 185.268 183.649 185.238C183.52 185.246 183.403 184.912 183.254 184.726Z"></path>
<mask fill="black" height="342.35" width="181.123" y="479.126" x="134.908" maskUnits="userSpaceOnUse" id="path-40-outside-1_4_226">
<rect height="342.35" width="181.123" y="479.126" x="134.908" fill="white"></rect>
<path d="M242.665 677.935C239.02 679.929 233.003 674.611 229.844 672.138C225.367 668.628 222.457 665.02 217.194 662.991C216.415 662.632 215.156 660.288 214.549 659.651C210.078 655.669 207.563 651.891 204.389 646.304C203.179 644.174 201.099 642.114 199.143 640.603C193.176 635.997 189.654 629.659 185.36 623.337C184.919 622.689 184.547 622.125 183.769 621.965C182.099 621.605 181.466 620.091 181.108 618.667C180.586 616.564 180.1 614.569 178.313 613.237C178.034 612.982 177.831 612.645 177.726 612.269C177.621 611.892 177.619 611.491 177.721 611.115C178.25 608.92 177.143 607.685 175.687 606.504C174.898 605.863 173.802 604.664 174.318 603.87C176.241 600.924 173.879 599.891 172.745 597.913C171.612 595.935 171.496 593.206 171.576 590.826C171.623 590.442 171.582 590.051 171.458 589.687C171.333 589.323 171.129 588.996 170.862 588.735C170.051 587.726 169.13 586.591 169.747 585.019C169.802 584.931 169.837 584.831 169.851 584.726C169.865 584.621 169.858 584.513 169.828 584.412C169.799 584.31 169.749 584.217 169.682 584.139C169.615 584.061 169.532 584 169.441 583.961C166.476 582.086 166.413 582.057 166.905 578.788C167.084 577.594 167.001 576.98 165.751 577.121C164.301 577.284 164.232 576.11 163.957 575.073C163.484 573.304 162.692 571.583 162.502 569.788C161.92 564.25 157.884 559.904 157.837 554.237C157.828 554.085 157.864 553.898 157.81 553.776C153.463 546.691 152.025 538.183 148.049 530.917C147.924 530.689 147.601 530.593 146.866 530.065C146.798 534.857 146.789 539.34 146.664 543.817C146.173 561.5 147.897 579.08 148.978 596.695C149.291 602.05 148.924 607.452 149.373 612.79C150.146 621.901 150.01 631.046 151.024 640.166C151.995 648.989 153.14 657.847 153.099 666.773C153.087 669.736 153.993 672.523 154.342 675.412C156.011 689.285 158.814 702.935 162.238 716.409C165.058 727.489 168.575 738.369 171.737 749.353C173.72 756.238 174.82 763.389 177.393 770.093C178.974 774.211 180.891 778.146 182.78 782.102C183.866 784.378 185.912 785.228 187.832 786.117C193.728 788.852 199.542 791.786 205.562 794.217C213.979 797.606 222.292 801.297 231.017 803.645C244.007 807.137 257.053 808.333 270.466 806.771C278.142 805.875 285.455 803.398 293.08 802.57C294.062 802.405 295.01 802.063 295.884 801.557C302.183 798.463 308.454 795.328 313.387 789.882C314.744 791.07 314.046 792 313.398 792.738C309.285 797.515 304.59 801.672 299.44 805.096C291.997 809.989 283.642 810.737 275.472 812.296C270.598 813.228 265.614 813.691 260.674 814.243C253.849 815.004 247.032 813.86 240.282 812.597C238.736 812.308 237.228 811.758 235.674 811.544C227.986 810.485 220.86 807.281 213.559 804.762C212.394 804.371 211.316 804.063 210.3 804.828C208.425 806.251 206.806 805.574 205.23 804.252C202.381 801.857 198.891 800.703 195.883 798.605C194.54 797.666 193.578 798.178 192.425 799.085C188.849 801.897 188.58 801.701 184.998 799.111C182.022 796.97 179.728 793.895 178.433 790.308C176.856 786.245 174.778 782.357 172.924 778.394C172.626 777.867 172.398 777.297 172.245 776.703C170.792 768.067 167.077 760.194 164.925 751.796C162.473 742.241 159.491 732.802 157.111 723.23C155.392 716.306 153.54 709.368 152.212 702.305C151.56 698.851 150.703 695.507 150.815 691.914C150.937 688.053 149.433 684.42 148.729 680.678C147.481 674.022 147.516 667.263 146.627 660.58C145.775 654.232 145.283 647.788 144.973 641.393C144.696 635.624 143.58 629.823 144.652 623.999C144.864 622.844 144.634 621.551 144.439 620.352C143.168 612.97 142.972 605.427 143.858 597.993C144.208 595.093 143.095 592.278 143.035 589.342C142.901 583.227 142.32 577.121 142.053 571.005C141.801 565.216 141.651 559.421 141.467 553.632C141.236 547.029 142.362 540.504 141.891 533.915C141.864 533.455 142.094 532.978 142.065 532.555C141.57 528.412 141.802 525.414 142.57 522.108C142.926 520.339 143.123 517.232 141.108 516.182C139.093 515.131 140.828 512.342 140.777 510.511C140.654 506.359 141.252 503.445 139.351 499.703C138.536 498.103 139.011 493.887 139.011 493.887C139.011 493.887 140.134 490.435 143.497 489.622C152.373 487.475 145.808 505.355 148.947 513.074C152.086 520.793 152.431 529.867 155.454 537.649C157.147 542 158.816 546.39 160.342 550.839C164.161 561.954 168.194 573.002 172.846 583.766C173.809 585.994 175.236 587.921 176.076 590.25C176.942 592.646 178.094 594.853 178.595 597.489C179.516 602.29 181.679 606.681 183.532 611.133C184.921 614.477 187.079 617.321 189.689 619.883C193.36 623.489 194.561 628.789 197.87 632.801C198.986 634.189 200.265 636.003 201.658 637.061C204.426 639.177 206.742 642.87 208.397 646.059C208.599 646.434 208.743 646.962 209.054 647.146C214.162 650.423 214.802 658.022 220.076 661.063C223.555 663.046 229.183 668.462 232.362 670.962C234.663 672.79 237.963 674.681 240.916 675.253C242.761 675.602 243.595 676.007 242.578 678.07L242.665 677.935Z"></path>
</mask>
<path fill="#FD8D6C" d="M242.665 677.935C239.02 679.929 233.003 674.611 229.844 672.138C225.367 668.628 222.457 665.02 217.194 662.991C216.415 662.632 215.156 660.288 214.549 659.651C210.078 655.669 207.563 651.891 204.389 646.304C203.179 644.174 201.099 642.114 199.143 640.603C193.176 635.997 189.654 629.659 185.36 623.337C184.919 622.689 184.547 622.125 183.769 621.965C182.099 621.605 181.466 620.091 181.108 618.667C180.586 616.564 180.1 614.569 178.313 613.237C178.034 612.982 177.831 612.645 177.726 612.269C177.621 611.892 177.619 611.491 177.721 611.115C178.25 608.92 177.143 607.685 175.687 606.504C174.898 605.863 173.802 604.664 174.318 603.87C176.241 600.924 173.879 599.891 172.745 597.913C171.612 595.935 171.496 593.206 171.576 590.826C171.623 590.442 171.582 590.051 171.458 589.687C171.333 589.323 171.129 588.996 170.862 588.735C170.051 587.726 169.13 586.591 169.747 585.019C169.802 584.931 169.837 584.831 169.851 584.726C169.865 584.621 169.858 584.513 169.828 584.412C169.799 584.31 169.749 584.217 169.682 584.139C169.615 584.061 169.532 584 169.441 583.961C166.476 582.086 166.413 582.057 166.905 578.788C167.084 577.594 167.001 576.98 165.751 577.121C164.301 577.284 164.232 576.11 163.957 575.073C163.484 573.304 162.692 571.583 162.502 569.788C161.92 564.25 157.884 559.904 157.837 554.237C157.828 554.085 157.864 553.898 157.81 553.776C153.463 546.691 152.025 538.183 148.049 530.917C147.924 530.689 147.601 530.593 146.866 530.065C146.798 534.857 146.789 539.34 146.664 543.817C146.173 561.5 147.897 579.08 148.978 596.695C149.291 602.05 148.924 607.452 149.373 612.79C150.146 621.901 150.01 631.046 151.024 640.166C151.995 648.989 153.14 657.847 153.099 666.773C153.087 669.736 153.993 672.523 154.342 675.412C156.011 689.285 158.814 702.935 162.238 716.409C165.058 727.489 168.575 738.369 171.737 749.353C173.72 756.238 174.82 763.389 177.393 770.093C178.974 774.211 180.891 778.146 182.78 782.102C183.866 784.378 185.912 785.228 187.832 786.117C193.728 788.852 199.542 791.786 205.562 794.217C213.979 797.606 222.292 801.297 231.017 803.645C244.007 807.137 257.053 808.333 270.466 806.771C278.142 805.875 285.455 803.398 293.08 802.57C294.062 802.405 295.01 802.063 295.884 801.557C302.183 798.463 308.454 795.328 313.387 789.882C314.744 791.07 314.046 792 313.398 792.738C309.285 797.515 304.59 801.672 299.44 805.096C291.997 809.989 283.642 810.737 275.472 812.296C270.598 813.228 265.614 813.691 260.674 814.243C253.849 815.004 247.032 813.86 240.282 812.597C238.736 812.308 237.228 811.758 235.674 811.544C227.986 810.485 220.86 807.281 213.559 804.762C212.394 804.371 211.316 804.063 210.3 804.828C208.425 806.251 206.806 805.574 205.23 804.252C202.381 801.857 198.891 800.703 195.883 798.605C194.54 797.666 193.578 798.178 192.425 799.085C188.849 801.897 188.58 801.701 184.998 799.111C182.022 796.97 179.728 793.895 178.433 790.308C176.856 786.245 174.778 782.357 172.924 778.394C172.626 777.867 172.398 777.297 172.245 776.703C170.792 768.067 167.077 760.194 164.925 751.796C162.473 742.241 159.491 732.802 157.111 723.23C155.392 716.306 153.54 709.368 152.212 702.305C151.56 698.851 150.703 695.507 150.815 691.914C150.937 688.053 149.433 684.42 148.729 680.678C147.481 674.022 147.516 667.263 146.627 660.58C145.775 654.232 145.283 647.788 144.973 641.393C144.696 635.624 143.58 629.823 144.652 623.999C144.864 622.844 144.634 621.551 144.439 620.352C143.168 612.97 142.972 605.427 143.858 597.993C144.208 595.093 143.095 592.278 143.035 589.342C142.901 583.227 142.32 577.121 142.053 571.005C141.801 565.216 141.651 559.421 141.467 553.632C141.236 547.029 142.362 540.504 141.891 533.915C141.864 533.455 142.094 532.978 142.065 532.555C141.57 528.412 141.802 525.414 142.57 522.108C142.926 520.339 143.123 517.232 141.108 516.182C139.093 515.131 140.828 512.342 140.777 510.511C140.654 506.359 141.252 503.445 139.351 499.703C138.536 498.103 139.011 493.887 139.011 493.887C139.011 493.887 140.134 490.435 143.497 489.622C152.373 487.475 145.808 505.355 148.947 513.074C152.086 520.793 152.431 529.867 155.454 537.649C157.147 542 158.816 546.39 160.342 550.839C164.161 561.954 168.194 573.002 172.846 583.766C173.809 585.994 175.236 587.921 176.076 590.25C176.942 592.646 178.094 594.853 178.595 597.489C179.516 602.29 181.679 606.681 183.532 611.133C184.921 614.477 187.079 617.321 189.689 619.883C193.36 623.489 194.561 628.789 197.87 632.801C198.986 634.189 200.265 636.003 201.658 637.061C204.426 639.177 206.742 642.87 208.397 646.059C208.599 646.434 208.743 646.962 209.054 647.146C214.162 650.423 214.802 658.022 220.076 661.063C223.555 663.046 229.183 668.462 232.362 670.962C234.663 672.79 237.963 674.681 240.916 675.253C242.761 675.602 243.595 676.007 242.578 678.07L242.665 677.935Z"></path>
<path mask="url(#path-40-outside-1_4_226)" stroke-width="0.843471" stroke="#FD8D6C" d="M242.665 677.935C239.02 679.929 233.003 674.611 229.844 672.138C225.367 668.628 222.457 665.02 217.194 662.991C216.415 662.632 215.156 660.288 214.549 659.651C210.078 655.669 207.563 651.891 204.389 646.304C203.179 644.174 201.099 642.114 199.143 640.603C193.176 635.997 189.654 629.659 185.36 623.337C184.919 622.689 184.547 622.125 183.769 621.965C182.099 621.605 181.466 620.091 181.108 618.667C180.586 616.564 180.1 614.569 178.313 613.237C178.034 612.982 177.831 612.645 177.726 612.269C177.621 611.892 177.619 611.491 177.721 611.115C178.25 608.92 177.143 607.685 175.687 606.504C174.898 605.863 173.802 604.664 174.318 603.87C176.241 600.924 173.879 599.891 172.745 597.913C171.612 595.935 171.496 593.206 171.576 590.826C171.623 590.442 171.582 590.051 171.458 589.687C171.333 589.323 171.129 588.996 170.862 588.735C170.051 587.726 169.13 586.591 169.747 585.019C169.802 584.931 169.837 584.831 169.851 584.726C169.865 584.621 169.858 584.513 169.828 584.412C169.799 584.31 169.749 584.217 169.682 584.139C169.615 584.061 169.532 584 169.441 583.961C166.476 582.086 166.413 582.057 166.905 578.788C167.084 577.594 167.001 576.98 165.751 577.121C164.301 577.284 164.232 576.11 163.957 575.073C163.484 573.304 162.692 571.583 162.502 569.788C161.92 564.25 157.884 559.904 157.837 554.237C157.828 554.085 157.864 553.898 157.81 553.776C153.463 546.691 152.025 538.183 148.049 530.917C147.924 530.689 147.601 530.593 146.866 530.065C146.798 534.857 146.789 539.34 146.664 543.817C146.173 561.5 147.897 579.08 148.978 596.695C149.291 602.05 148.924 607.452 149.373 612.79C150.146 621.901 150.01 631.046 151.024 640.166C151.995 648.989 153.14 657.847 153.099 666.773C153.087 669.736 153.993 672.523 154.342 675.412C156.011 689.285 158.814 702.935 162.238 716.409C165.058 727.489 168.575 738.369 171.737 749.353C173.72 756.238 174.82 763.389 177.393 770.093C178.974 774.211 180.891 778.146 182.78 782.102C183.866 784.378 185.912 785.228 187.832 786.117C193.728 788.852 199.542 791.786 205.562 794.217C213.979 797.606 222.292 801.297 231.017 803.645C244.007 807.137 257.053 808.333 270.466 806.771C278.142 805.875 285.455 803.398 293.08 802.57C294.062 802.405 295.01 802.063 295.884 801.557C302.183 798.463 308.454 795.328 313.387 789.882C314.744 791.07 314.046 792 313.398 792.738C309.285 797.515 304.59 801.672 299.44 805.096C291.997 809.989 283.642 810.737 275.472 812.296C270.598 813.228 265.614 813.691 260.674 814.243C253.849 815.004 247.032 813.86 240.282 812.597C238.736 812.308 237.228 811.758 235.674 811.544C227.986 810.485 220.86 807.281 213.559 804.762C212.394 804.371 211.316 804.063 210.3 804.828C208.425 806.251 206.806 805.574 205.23 804.252C202.381 801.857 198.891 800.703 195.883 798.605C194.54 797.666 193.578 798.178 192.425 799.085C188.849 801.897 188.58 801.701 184.998 799.111C182.022 796.97 179.728 793.895 178.433 790.308C176.856 786.245 174.778 782.357 172.924 778.394C172.626 777.867 172.398 777.297 172.245 776.703C170.792 768.067 167.077 760.194 164.925 751.796C162.473 742.241 159.491 732.802 157.111 723.23C155.392 716.306 153.54 709.368 152.212 702.305C151.56 698.851 150.703 695.507 150.815 691.914C150.937 688.053 149.433 684.42 148.729 680.678C147.481 674.022 147.516 667.263 146.627 660.58C145.775 654.232 145.283 647.788 144.973 641.393C144.696 635.624 143.58 629.823 144.652 623.999C144.864 622.844 144.634 621.551 144.439 620.352C143.168 612.97 142.972 605.427 143.858 597.993C144.208 595.093 143.095 592.278 143.035 589.342C142.901 583.227 142.32 577.121 142.053 571.005C141.801 565.216 141.651 559.421 141.467 553.632C141.236 547.029 142.362 540.504 141.891 533.915C141.864 533.455 142.094 532.978 142.065 532.555C141.57 528.412 141.802 525.414 142.57 522.108C142.926 520.339 143.123 517.232 141.108 516.182C139.093 515.131 140.828 512.342 140.777 510.511C140.654 506.359 141.252 503.445 139.351 499.703C138.536 498.103 139.011 493.887 139.011 493.887C139.011 493.887 140.134 490.435 143.497 489.622C152.373 487.475 145.808 505.355 148.947 513.074C152.086 520.793 152.431 529.867 155.454 537.649C157.147 542 158.816 546.39 160.342 550.839C164.161 561.954 168.194 573.002 172.846 583.766C173.809 585.994 175.236 587.921 176.076 590.25C176.942 592.646 178.094 594.853 178.595 597.489C179.516 602.29 181.679 606.681 183.532 611.133C184.921 614.477 187.079 617.321 189.689 619.883C193.36 623.489 194.561 628.789 197.87 632.801C198.986 634.189 200.265 636.003 201.658 637.061C204.426 639.177 206.742 642.87 208.397 646.059C208.599 646.434 208.743 646.962 209.054 647.146C214.162 650.423 214.802 658.022 220.076 661.063C223.555 663.046 229.183 668.462 232.362 670.962C234.663 672.79 237.963 674.681 240.916 675.253C242.761 675.602 243.595 676.007 242.578 678.07L242.665 677.935Z"></path>
<path fill="#FD8D6C" d="M367.299 410.995C388.596 424.117 409.112 424.88 430.34 417.434C430.583 414.883 429.038 414.449 427.893 413.858C416.552 407.702 403.28 406.136 390.818 409.484C387.347 410.37 383.875 411.602 380.404 412.487C379.055 412.748 377.676 412.818 376.308 412.696C375.874 412.696 375.145 412.14 375.11 411.793C374.998 411.023 375.138 410.238 375.509 409.554C376.02 408.885 376.705 408.369 377.488 408.061C384.542 404.814 392.032 402.616 399.722 401.535C408.861 400.435 418.125 401.889 426.487 405.735C431.052 407.749 435.565 409.866 440.095 411.932C442.87 413.291 445.001 415.684 446.031 418.597C446.656 420.09 445.111 422.624 443.688 422.068C440.355 420.905 437.943 422.398 435.148 423.804C431.881 425.323 428.443 426.442 424.907 427.137C416.778 428.909 408.477 429.776 400.156 429.723C386.461 429.601 374.659 425.245 365.564 414.848C362.856 415.334 361.554 418.128 358.898 418.18C359.26 415.491 360.175 412.906 361.585 410.588C362.995 408.27 364.869 406.269 367.091 404.711C374.078 399.21 382.109 395.183 390.697 392.874C398.302 390.622 406.276 389.894 414.164 390.731C422.051 391.568 429.695 393.954 436.658 397.751C440.564 399.851 444.677 401.535 448.53 403.722C452.002 405.701 453.738 409.033 452.158 410.161C449.763 411.897 447.42 410.682 445.215 409.519C442.265 407.974 439.366 406.343 436.398 404.833C424.491 398.775 412.098 395.894 398.611 397.89C393.415 398.782 388.364 400.376 383.598 402.628C378.564 404.85 373.791 407.645 367.299 410.995Z"></path>
<path fill="#FD8D6C" d="M189.332 414.276C188.524 414.462 187.695 414.538 186.867 414.502C184.35 414.086 183.396 412.68 184.125 410.545C184.52 409.235 185.155 408.011 185.999 406.934C187.727 404.775 189.755 402.876 192.022 401.293C200.076 396.555 208.077 391.695 217.311 389.282C226.984 386.744 237.18 387.027 246.697 390.098C256.92 393.274 265.529 399.315 273.41 406.396C274.953 407.98 276.32 409.726 277.488 411.603C277.645 411.829 277.193 412.541 276.95 412.975C276.869 413.083 276.764 413.172 276.644 413.235C276.524 413.298 276.392 413.333 276.256 413.339C275.718 413.339 275.041 413.339 274.694 413.061C271.882 410.527 269.487 411.013 266.849 413.547C263.956 416.117 260.875 418.466 257.632 420.577C250.293 425.629 241.582 428.313 232.672 428.266C224.382 428.622 216.102 427.373 208.286 424.587C204.693 423.198 200.996 422.035 197.299 420.942C195.558 420.478 193.936 419.648 192.541 418.508C191.146 417.367 190.011 415.943 189.21 414.329C190.113 413.895 190.946 413.166 192.022 413.547C190.391 411.812 190.425 411.326 192.283 410.718C193.793 410.51 194.018 409.434 194.018 408.201C194.699 408.663 195.504 408.91 196.327 408.91C197.15 408.91 197.954 408.663 198.635 408.201C203.391 405.945 208.216 403.81 213.076 401.814C229.027 395.288 244.041 398.881 258.673 406.188C259.134 406.481 259.53 406.865 259.836 407.316C259.949 407.551 260.019 407.804 260.045 408.063C260.201 408.757 259.906 409.121 259.229 409.295C257.338 409.791 255.345 409.737 253.484 409.139C247.339 407.264 240.952 406.865 234.703 405.667C223.195 403.498 213.562 408.288 203.964 413.391C203.729 413.527 203.537 413.725 203.409 413.963C203.281 414.202 203.221 414.471 203.237 414.741C203.254 415.012 203.345 415.272 203.501 415.493C203.657 415.715 203.871 415.888 204.12 415.995C205.109 416.516 206.151 416.897 207.123 417.435C211.427 419.865 216.357 418.876 220.887 419.952C227.424 421.279 234.125 421.607 240.761 420.924C249.665 420.334 260.114 414.381 265.963 406.778C259.957 402.283 253.239 398.827 246.089 396.555C240.303 394.57 234.181 393.746 228.075 394.13C221.97 394.514 216 396.099 210.507 398.794C204.745 401.536 199.659 405.355 194.001 408.236C194.059 408.765 193.936 409.299 193.652 409.749C193.368 410.2 192.941 410.541 192.439 410.718C192.248 411.69 192.942 412.836 191.849 413.634C191.484 415.908 190.304 414.693 189.332 414.276Z"></path>
<path fill="#FD8D6C" d="M267.535 340.464C270.416 339.11 273.384 337.67 276.404 336.333C277.646 335.726 278.958 335.271 280.31 334.979C280.924 334.9 281.549 334.965 282.134 335.171C282.719 335.377 283.247 335.718 283.676 336.166C284.105 336.613 284.423 337.155 284.604 337.748C284.785 338.341 284.824 338.968 284.718 339.579C284.302 341.471 283.544 343.271 282.479 344.89C282.097 345.619 281.785 346.626 282.739 347.043C283.494 347.294 284.317 347.238 285.031 346.886C287.981 345.359 290.845 343.658 293.709 342.078C295.254 341.245 296.608 340.777 297.719 342.981C299.177 345.949 299.454 346.678 297.389 347.754C293.015 350.115 288.571 352.371 284.093 354.558C282.832 355.13 281.482 355.483 280.101 355.6C276.456 355.964 273.939 353.638 273.696 349.75C273.7 348.664 273.781 347.579 273.939 346.505C271.787 345.151 270.225 346.869 268.489 347.424C261.859 349.507 260.627 348.848 258.353 341.714C254.881 341.87 252.521 344.456 249.518 345.602C246.238 346.852 243.148 347.615 240.267 344.838C239.745 344.394 239.134 344.067 238.476 343.879C237.817 343.69 237.126 343.644 236.448 343.745C231.241 343.745 225.93 343.988 220.688 343.745C212.03 343.242 203.482 345.88 196.614 351.174C191.634 354.689 186.313 357.696 180.732 360.147C174.57 363.098 167.957 363.081 161.535 364.434C161.309 363.046 161.813 362.352 162.524 362.074C175.039 357.353 186.061 349.924 197.36 342.981C203.203 339.216 210.085 337.394 217.026 337.774C223.639 338.156 230.252 338.867 236.899 338C237.859 337.805 238.851 337.828 239.8 338.069C240.75 338.309 241.633 338.76 242.384 339.388C244.623 341.523 246.689 341.124 249.084 339.614C252.399 337.6 255.819 335.76 259.307 334.077C263.786 331.907 265.365 332.914 266.424 338.26C266.507 338.797 266.617 339.33 266.754 339.857C266.858 339.961 267.118 340.082 267.535 340.464Z"></path>
<path fill="#FD8D6C" d="M357.324 350.712C357.78 350.014 358.041 349.207 358.081 348.374C358.121 347.541 357.937 346.712 357.55 345.974C356.734 344.238 355.814 342.503 355.12 340.767C354.704 340.043 354.529 339.206 354.619 338.376C354.71 337.547 355.061 336.767 355.623 336.15C356.204 335.543 356.98 335.16 357.814 335.068C358.649 334.976 359.489 335.181 360.188 335.647C362.375 336.809 364.614 337.938 366.767 339.118C370.811 341.444 374.803 343.839 378.708 346.061C381.104 344.134 380.444 341.704 380.652 339.639C381.156 336.08 383.863 335.213 386.762 336.167C388.048 336.675 389.267 337.339 390.39 338.146C391.761 339.049 392.889 340.524 394.364 340.975C396.482 341.635 396.499 338.892 397.836 338.077C399.468 337.002 401.44 336.569 403.373 336.862C410.516 337.773 417.711 338.225 424.913 338.215C431.041 338.336 436.954 340.498 441.715 344.36C449.181 350.152 456.342 356.328 463.168 362.862C466.014 365.605 467.472 369.146 469.573 372.062C468.514 374.075 467.507 373.016 466.813 372.496C464.781 371.049 462.856 369.46 461.05 367.74C454.194 360.797 446.366 355.104 438.729 349.133C434.643 345.766 429.513 343.925 424.219 343.926C417.866 343.926 411.513 343.214 405.126 342.711C404.202 342.539 403.247 342.667 402.401 343.076C401.555 343.485 400.861 344.154 400.422 344.985C397.523 349.307 395.736 349.393 391.639 346.495C390.095 345.401 389.036 343.596 386.693 343.214C384.957 344.95 386.398 347.31 385.946 349.307C385.113 353.073 381.937 354.809 378.448 353.056C376.487 352.066 374.734 350.66 372.842 349.584C370.325 348.022 368.155 345.8 365.048 345.089C363.851 348.005 366.038 350.088 366.159 352.535C366.265 353.294 366.181 354.068 365.913 354.786C365.645 355.504 365.203 356.144 364.626 356.649C364.049 357.154 363.356 357.507 362.608 357.676C361.861 357.846 361.083 357.827 360.345 357.621C356.511 356.796 353.146 354.519 350.954 351.268C350.399 350.348 349.861 349.133 350.954 348.317C351.285 348.104 351.66 347.969 352.051 347.921C352.441 347.873 352.838 347.913 353.211 348.039C354.625 348.853 355.993 349.745 357.307 350.712C357.394 350.522 357.446 350.348 357.515 350.174L357.324 350.712Z"></path>
<path fill="#FD8D6C" d="M495.01 67.2121C495.01 65.1813 494.854 62.1265 495.01 59.1063C495.217 57.4795 495.717 55.9036 496.485 54.4546C496.763 53.8992 497.822 53.6041 498.586 53.5C498.95 53.5 499.505 54.0034 499.835 54.4026C501.571 56.5375 501.189 59.1237 501.224 61.571C501.164 69.874 501.821 78.1667 503.185 86.357C503.596 87.6582 503.887 88.9946 504.053 90.3491C503.961 91.4321 503.616 92.4785 503.046 93.4039C502.853 93.6809 502.604 93.9146 502.316 94.09C502.027 94.2655 501.705 94.3789 501.371 94.423C501.036 94.4671 500.695 94.4409 500.371 94.3461C500.047 94.2514 499.746 94.0901 499.488 93.8726C497.922 92.2698 496.985 90.1562 496.85 87.9191C495.313 81.1302 494.694 74.1657 495.01 67.2121Z"></path>
<path fill="#FD8D6C" d="M549.288 740.28C549.427 735.072 548.785 731.688 550.382 728.598C550.593 728.265 550.878 727.984 551.215 727.78C551.552 727.575 551.933 727.451 552.326 727.418C552.713 727.456 553.084 727.588 553.408 727.803C553.732 728.018 553.998 728.309 554.183 728.65C554.912 731.021 555.446 733.448 555.78 735.906C556.636 743.601 557.394 751.307 558.054 759.025C558.236 761.22 558.236 763.426 558.054 765.621C558.001 766.177 557.731 766.69 557.301 767.047C556.872 767.405 556.319 767.578 555.763 767.53C555.216 767.62 554.654 767.543 554.152 767.307C553.65 767.072 553.231 766.689 552.951 766.211C552.354 764.971 551.944 763.649 551.736 762.288C550.781 754.321 549.948 746.441 549.288 740.28Z"></path>
<path fill="#FD8D6C" d="M555.639 678.324C555.083 684.538 554.667 689.502 554.181 694.449C554.092 697.787 553.03 701.026 551.126 703.77C550.618 704.413 549.898 704.856 549.095 705.019C548.192 705.158 547.845 704.256 547.585 703.474C546.76 701.119 546.55 698.592 546.977 696.132C548.317 688.792 549.164 681.369 549.512 673.915C549.685 670.027 551.247 667.719 552.983 668.344C555.482 669.281 555.743 671.589 555.847 673.811C555.857 675.318 555.787 676.824 555.639 678.324Z"></path>
<path fill="#FD8D6C" d="M590.841 722.229C582.029 721.744 573.328 720.021 564.997 717.109C564.646 716.927 564.342 716.667 564.11 716.347C563.878 716.028 563.724 715.658 563.66 715.269C563.689 714.883 563.804 714.508 563.996 714.171C564.188 713.835 564.453 713.546 564.771 713.325C565.657 712.691 566.691 712.297 567.774 712.179C569.424 712.103 571.077 712.255 572.686 712.631C579.646 714.369 586.777 715.335 593.948 715.512C594.777 715.548 595.601 715.652 596.413 715.824C597.871 716.119 599.017 716.866 598.999 718.48C598.967 719.175 598.703 719.839 598.25 720.367C597.798 720.896 597.182 721.258 596.5 721.396C594.69 722.055 592.765 722.339 590.841 722.229Z"></path>
<path fill="#FD8D6C" d="M51.6592 599.466C51.4509 601.792 51.0517 602.851 49.802 603.076C48.7101 603.236 47.5981 602.981 46.6855 602.361C45.7728 601.74 45.1259 600.8 44.8725 599.726C42.6616 590.876 41.9111 581.724 42.6508 572.632C42.6923 571.81 42.9629 571.017 43.4319 570.341C43.9627 569.751 44.7052 569.396 45.4974 569.352C46.3092 569.442 47.0732 569.782 47.6844 570.324C48.0445 570.74 48.2526 571.266 48.2745 571.816C49.6457 581.397 49.3854 591.152 51.6592 599.466Z"></path>
<path fill="#FD8D6C" d="M46.7402 529.271C47.0526 533.176 47.4345 536.491 47.556 539.806C47.5912 541.448 47.3806 543.087 46.9311 544.666C46.7512 545.193 46.4052 545.647 45.9451 545.96C45.4849 546.273 44.9355 546.428 44.3796 546.402C43.8283 546.416 43.2866 546.256 42.8317 545.944C42.3767 545.633 42.0316 545.185 41.8455 544.666C41.2763 543.11 40.8692 541.499 40.6305 539.858C39.6932 532.69 40.2834 525.469 40.2139 518.284C40.2681 517.451 40.4678 516.634 40.8041 515.871C41.0088 515.203 41.427 514.621 41.9944 514.213C42.5619 513.805 43.2473 513.595 43.9457 513.614C44.4969 513.697 45.008 513.951 45.4067 514.341C45.8055 514.73 46.0716 515.235 46.1674 515.784C46.5031 517.119 46.6837 518.487 46.7055 519.863C46.8617 523.213 46.7402 526.546 46.7402 529.271Z"></path>
<path fill="#FD8D6C" d="M498.051 15.8507C498.332 21.0786 498 26.3214 497.062 31.472C497.025 32.1586 496.853 32.8311 496.555 33.4508C496.257 34.0704 495.839 34.6249 495.326 35.0823C494.736 35.4989 493.868 36.0543 493.295 35.0823C492.895 34.3731 492.609 33.606 492.445 32.8085C490.8 23.0326 490.9 13.0426 492.74 3.30149C492.902 2.45687 493.246 1.65746 493.746 0.958278C494.091 0.559763 494.553 0.280319 495.066 0.159852C495.461 0.057358 495.881 0.112214 496.237 0.312893C496.593 0.513572 496.858 0.844449 496.975 1.23599C497.538 2.4705 497.89 3.79054 498.016 5.14134C498.155 8.76897 498.051 12.2404 498.051 15.8507Z"></path>
<path fill="#FD8D6C" d="M461.701 48.6866C458.767 47.9055 454.983 48.7733 451.807 46.6558C451.599 46.5085 451.425 46.317 451.299 46.095C451.173 45.873 451.098 45.6259 451.078 45.3714C451.127 45.1094 451.231 44.8608 451.384 44.6423C451.537 44.4238 451.734 44.2404 451.963 44.1043C452.696 43.754 453.482 43.531 454.289 43.4447C461.662 42.7651 468.984 41.6172 476.211 40.008C479.492 39.2443 482.06 40.5634 482.13 42.6463C482.199 44.7291 480.724 45.9441 477.669 46.6384C472.442 47.927 467.084 48.6141 461.701 48.6866Z"></path>
<path fill="#FD8D6C" d="M518.829 747.891C517.545 748.047 516.104 746.155 516.625 745.044C516.994 744.017 517.553 743.069 518.274 742.25C523.915 736.938 529.591 731.662 535.371 726.507C536.5 725.719 537.756 725.132 539.085 724.771C540.022 724.407 541.359 725.778 541.012 726.767C540.711 728.111 540.163 729.388 539.397 730.534C534.515 736.189 529.116 741.378 523.273 746.034C522.042 747.133 520.477 747.787 518.829 747.891Z"></path>
<path fill="#FD8D6C" d="M520.406 714.656C523.982 714.431 527.575 713.719 531.098 714.865C531.339 714.962 531.558 715.107 531.74 715.293C531.922 715.478 532.064 715.698 532.157 715.941C532.216 716.188 532.221 716.445 532.17 716.694C532.119 716.943 532.014 717.178 531.862 717.381C530.334 719.003 528.337 720.107 526.152 720.54C518.531 721.931 510.722 721.931 503.101 720.54C502.708 720.433 502.346 720.233 502.044 719.959C501.742 719.684 501.51 719.342 501.366 718.961C501.262 718.44 501.973 717.451 502.581 717.121C505.505 715.563 508.762 714.736 512.075 714.708C514.869 714.604 517.647 714.656 520.406 714.656Z"></path>
<path fill="#FD8D6C" d="M531.126 48.1658C524.471 47.6579 517.889 46.4359 511.495 44.5208C511.295 44.4743 511.106 44.3879 510.94 44.2666C510.773 44.1453 510.633 43.9918 510.528 43.8151C510.423 43.6384 510.354 43.4422 510.326 43.2384C510.299 43.0346 510.312 42.8272 510.367 42.6288C510.518 42.1178 510.836 41.6719 511.269 41.3618C513.858 39.7539 516.969 39.2125 519.948 39.8517C524.821 40.6647 529.734 41.2094 534.667 41.4833C535.725 41.6664 536.704 42.1621 537.479 42.9066C537.838 43.2265 538.108 43.6343 538.263 44.09C538.417 44.5458 538.45 45.0338 538.359 45.5063C538.268 45.9788 538.056 46.4196 537.744 46.7854C537.431 47.1512 537.029 47.4295 536.576 47.593C536.044 47.7544 535.498 47.8648 534.945 47.9228C533.955 48.0095 532.862 48.0616 531.126 48.1658Z"></path>
<path fill="#FD8D6C" d="M466.233 74.3095C465.92 73.7193 465.521 73.2854 465.504 72.8341C465.525 72.2876 465.687 71.7556 465.973 71.2893C470.322 63.9874 475.927 57.5119 482.531 52.1618C483.114 51.6017 483.866 51.2503 484.67 51.1623C485.474 51.0744 486.284 51.255 486.975 51.6758C487.332 51.8928 487.593 52.239 487.703 52.6428C487.813 53.0466 487.763 53.4771 487.565 53.8455C486.992 55.3753 486.209 56.8181 485.239 58.1327C480.254 63.9771 474.603 69.2197 468.403 73.7541C467.721 74.074 466.985 74.2624 466.233 74.3095Z"></path>
<path fill="#FD8D6C" d="M524.671 18.9953C524.557 19.7376 524.329 20.4579 523.994 21.1302C519.826 27.3677 514.354 32.6264 507.956 36.5433C506.77 37.2166 505.459 37.6418 504.103 37.793C503.699 37.7857 503.303 37.6828 502.947 37.4927C502.591 37.3026 502.285 37.0308 502.055 36.6995C501.904 36.3444 501.843 35.9578 501.876 35.5736C501.909 35.1893 502.036 34.819 502.246 34.4951C508.095 28.2226 514.522 22.5158 521.443 17.4505C522.166 17.1571 522.976 17.1571 523.699 17.4505C524.185 17.624 524.289 18.353 524.671 18.9953Z"></path>
<path fill="#FD8D6C" d="M563.838 725.861C564.36 725.765 564.896 725.765 565.418 725.861C567.257 726.443 569.009 727.272 570.625 728.326C575.068 731.954 579.304 735.789 583.625 739.643C583.946 739.902 584.21 740.224 584.402 740.589C584.594 740.953 584.709 741.353 584.742 741.764C584.774 742.175 584.723 742.588 584.591 742.978C584.458 743.368 584.248 743.728 583.973 744.034C582.723 745.145 581.195 746.1 579.581 744.728C573.767 739.782 567.327 735.46 563.37 728.656C563.204 728.446 563.084 728.205 563.017 727.946C562.951 727.687 562.939 727.418 562.983 727.154C563.027 726.891 563.126 726.64 563.274 726.417C563.421 726.194 563.613 726.005 563.838 725.861Z"></path>
<path fill="#FD8D6C" d="M19.874 561.042C13.5214 560.4 7.48109 559.792 1.44082 559.133C1.03329 559.062 0.664232 558.849 0.400114 558.531C0.135995 558.213 -0.00582842 557.81 0.000183582 557.397C0.00636521 556.837 0.23051 556.302 0.625039 555.904C2.68462 554.013 5.39699 552.992 8.19273 553.058C13.7372 553.271 19.2292 554.216 24.5257 555.87C25.0592 556.004 25.5272 556.324 25.8454 556.773C26.1636 557.221 26.3112 557.769 26.2615 558.317C26.2104 559.012 25.9133 559.667 25.4235 560.163C24.9337 560.659 24.2831 560.965 23.5885 561.025C22.3527 561.129 21.1107 561.135 19.874 561.042Z"></path>
<path fill="#FD8D6C" d="M20.2738 586.533C19.701 586.099 19.0588 585.839 18.9199 585.423C18.5555 584.688 18.3501 583.884 18.3172 583.065C18.2843 582.246 18.4246 581.428 18.729 580.667C21.2668 575.506 24.6587 570.811 28.7614 566.781C29.6427 566.157 30.6719 565.774 31.7468 565.67C32.7535 565.462 33.2569 566.26 33.361 567.093C33.485 567.896 33.4196 568.716 33.1701 569.489C30.7258 575.614 27.0514 581.173 22.374 585.822C21.8706 586.273 20.916 586.325 20.2738 586.533Z"></path>
<path fill="#FD8D6C" d="M579.09 691.603C579.101 692.217 579.031 692.83 578.882 693.425C577.389 696.741 566.836 706.287 563.26 707.589C563.017 707.707 562.749 707.766 562.479 707.762C561.705 707.627 560.956 707.375 560.257 707.016C560.049 706.877 560.171 705.957 560.362 705.506C563.156 698.91 568.311 694.484 574.126 690.718C575.102 690.264 576.201 690.148 577.25 690.388C577.996 690.475 578.552 691.221 579.09 691.603Z"></path>
<path fill="#FD8D6C" d="M521.78 691.023C522.322 691.042 522.86 691.136 523.377 691.301C529.58 694.2 535.356 697.938 540.543 702.41C541.186 702.886 541.738 703.474 542.174 704.145C542.531 704.733 542.672 705.427 542.574 706.108C542.476 706.788 542.144 707.414 541.636 707.877C541.276 708.298 540.776 708.576 540.228 708.659C539.679 708.741 539.12 708.624 538.651 708.328C536.533 707.113 534.416 705.846 532.402 704.44C527.889 701.229 524.522 696.89 520.999 692.724C520.773 692.464 520.999 691.787 521.12 691.336C521.172 691.232 521.554 691.145 521.78 691.023Z"></path>
<path fill="#FD8D6C" d="M527.663 68.1813C527.802 68.9277 526.292 70.403 525.424 70.2121C524.084 70.0192 522.79 69.5839 521.605 68.9277C516.669 65.4348 512.175 61.3549 508.223 56.7777C507.911 56.5026 507.7 56.1307 507.625 55.7215C507.549 55.3124 507.613 54.8897 507.806 54.5213C508.056 54.0295 508.489 53.6555 509.012 53.4801C509.535 53.3047 510.105 53.3421 510.601 53.584C517.307 56.1801 523.073 60.7418 527.142 66.6713C527.38 67.1501 527.555 67.6577 527.663 68.1813Z"></path>
<path fill="#FD8D6C" d="M487.743 34.9069C487.743 36.1045 485.226 37.5278 483.838 37.0591C482.262 36.4865 480.882 35.4747 479.863 34.1432C476.912 30.4808 473.857 26.8879 471.098 23.0693C470.004 21.5419 466.793 20.0839 468.963 17.8622C470.386 16.4389 472.434 18.5738 473.875 19.8236C478.006 23.5148 482.056 27.2813 486.025 31.123C486.593 31.5699 487.046 32.1469 487.345 32.8054C487.644 33.4639 487.781 34.1846 487.743 34.9069Z"></path>
<path fill="#FD8D6C" d="M72.7773 553.51C77.9844 553.684 81.8203 552.868 85.6563 554.066C86.3431 554.177 86.9632 554.542 87.3939 555.088C87.8246 555.635 88.0345 556.323 87.9821 557.016C87.9745 557.576 87.7556 558.113 87.3694 558.518C86.9832 558.924 86.4582 559.169 85.8993 559.203C78.1823 560.25 70.3295 559.58 62.9011 557.242C62.6646 557.117 62.4601 556.94 62.3035 556.723C62.1469 556.506 62.0426 556.256 61.9986 555.992C61.9425 555.789 61.9341 555.575 61.974 555.368C62.0139 555.161 62.1011 554.966 62.2287 554.798C62.3564 554.63 62.521 554.494 62.7099 554.4C62.8988 554.306 63.1068 554.257 63.3177 554.257C66.8933 553.996 70.4688 553.771 72.7773 553.51Z"></path>
<path fill="#FD8D6C" d="M77.6441 580.494C77.6489 580.7 77.6117 580.905 77.5349 581.097C77.4581 581.289 77.3432 581.463 77.1972 581.609C77.0512 581.755 76.8771 581.87 76.6854 581.946C76.4937 582.023 76.2885 582.06 76.082 582.056C75.2702 582.013 74.4796 581.782 73.7735 581.379C67.8717 577.798 62.4576 573.469 57.6661 568.5C57.3579 568.237 57.1664 567.863 57.1339 567.46C57.1013 567.056 57.2303 566.656 57.4926 566.348C57.9101 565.987 58.4346 565.773 58.9853 565.74C60.6497 565.563 62.3243 565.967 63.7238 566.886C68.9827 569.958 73.541 574.097 77.1061 579.036C77.3493 579.496 77.5302 579.986 77.6441 580.494Z"></path>
<path fill="#FD8D6C" d="M18.4832 530.707C19.4568 530.708 20.4178 530.927 21.2951 531.349C26.2592 535.237 31.7093 538.83 33.6533 545.339C33.8616 546.016 34.5906 546.936 33.393 547.335C32.6319 547.62 31.7935 547.62 31.0324 547.335C29.5518 546.603 28.184 545.662 26.9709 544.541C23.3606 541.069 19.8545 537.598 16.383 534.126C16.0981 533.845 15.8717 533.51 15.7168 533.14C15.5619 532.771 15.4816 532.375 15.4805 531.974C15.7061 530.516 17.1294 530.985 18.4832 530.707Z"></path>
<path fill="#FD8D6C" d="M69.8612 532.674C69.7834 533.626 69.5304 534.556 69.1148 535.417C66.0445 539.97 62.203 543.952 57.7633 547.185C57.0586 547.573 56.2581 547.754 55.4548 547.705C55.1857 547.69 54.9224 547.621 54.6808 547.502C54.4392 547.383 54.2242 547.216 54.0489 547.011C53.9025 546.801 53.7995 546.564 53.7459 546.313C53.6922 546.063 53.689 545.805 53.7364 545.553C53.8571 545.017 54.1141 544.52 54.4828 544.112C57.5376 540.641 60.5751 537.065 63.7341 533.698C64.7505 532.385 66.2038 531.48 67.8304 531.147C68.7156 530.973 69.4273 531.476 69.8612 532.674Z"></path>
<path fill="#FD8D6C" d="M192.942 430.25C192.821 430.615 192.804 431.986 192.127 432.576C189.02 435.214 185.739 437.662 182.459 440.092C181.174 441.046 179.89 440.474 178.744 439.571C177.599 438.669 177.321 437.575 178.172 436.759C181.565 433.233 185.46 430.227 189.731 427.838C190.929 427.213 192.752 428.289 192.942 430.25Z"></path>
<path fill="#FD8D6C" d="M203.761 448.11C201.608 447.797 201.122 446.912 201.088 445.732C201.045 445.183 201.147 444.632 201.383 444.135C203.169 440.753 205.741 437.848 208.881 435.665C209.419 435.233 210.083 434.989 210.773 434.97C211.462 434.951 212.139 435.159 212.699 435.56C214.175 436.671 213.533 438.043 212.699 439.153C210.755 441.774 208.707 444.36 206.624 446.877C206.276 447.292 205.836 447.619 205.339 447.833C204.841 448.047 204.301 448.142 203.761 448.11Z"></path>
<path fill="#FD8D6C" d="M282.585 436.177C282.377 436.837 281.908 437.687 280.953 437.392C276.396 436.233 272.19 433.981 268.699 430.831C268.371 430.571 268.149 430.201 268.072 429.789C267.996 429.378 268.07 428.953 268.283 428.592C268.491 428.256 268.764 427.965 269.086 427.736C269.408 427.506 269.772 427.343 270.157 427.255C273.368 427.012 281.179 431.56 282.55 434.389C282.67 434.978 282.682 435.584 282.585 436.177Z"></path>
<path fill="#FD8D6C" d="M234.822 443.827C234.738 445.58 234.505 447.321 234.128 449.035C233.902 449.689 233.442 450.237 232.836 450.573C232.231 450.91 231.523 451.011 230.848 450.857C230.306 450.756 229.81 450.487 229.43 450.089C229.049 449.69 228.805 449.181 228.73 448.635C228.229 445.652 228.485 442.59 229.476 439.731C229.638 439.057 230.019 438.456 230.559 438.023C231.1 437.589 231.769 437.348 232.462 437.336C233.885 437.336 234.961 438.777 234.961 440.807C234.961 441.38 234.909 441.936 234.822 443.827Z"></path>
<path fill="#FD8D6C" d="M257.025 444.569C256.802 445.399 256.518 446.212 256.174 446.999C256.062 447.253 255.894 447.478 255.683 447.659C255.472 447.839 255.223 447.97 254.955 448.041C254.687 448.113 254.407 448.123 254.134 448.072C253.861 448.021 253.603 447.91 253.38 447.746C251.753 446.488 250.456 444.856 249.597 442.988C248.739 441.12 248.345 439.072 248.45 437.019C248.491 436.759 248.595 436.512 248.752 436.301C248.909 436.089 249.115 435.919 249.353 435.804C250.064 435.578 251.193 435.37 251.574 435.804C254.291 438.06 256.203 441.135 257.025 444.569Z"></path>
</g>
</svg>
